<svg xmlns="http://www.w3.org/2000/svg" width="433" height="104" viewBox="0 0 433 104">
  <defs>
    <style>
      .cls-1 {
        fill: #0442ba;
      }

      .cls-1, .cls-2 {
        fill-rule: evenodd;
      }

      .cls-2 {
        fill: #25bef6;
      }
    </style>
  </defs>
  <path id="Olian_copy_3" data-name="Olian copy 3" class="cls-1" d="M125.956,52.4a37.779,37.779,0,1,0,37.726-37.937A37.5,37.5,0,0,0,125.956,52.4Zm13.661,0a24.118,24.118,0,1,1,24.065,24.065A24.31,24.31,0,0,1,139.617,52.4Zm75.662,34.679a2,2,0,0,0,2,2h38.462a2,2,0,0,0,2-2V78.461a2,2,0,0,0-2-2h-26.8V17.51a2.067,2.067,0,0,0-2-2h-9.668a2,2,0,0,0-2,2V87.078Zm53.068,0a2.067,2.067,0,0,0,2,2h9.773a2.067,2.067,0,0,0,2-2V17.51a2.067,2.067,0,0,0-2-2h-9.773a2.067,2.067,0,0,0-2,2V87.078Zm79.025-.105c0.736,1.471,1.471,2.1,3.048,2.1h9.142a1.856,1.856,0,0,0,1.787-2.732L328.982,15.618a1.787,1.787,0,0,0-1.787-1.156h-1.051a1.888,1.888,0,0,0-1.786,1.156L291.676,86.342a1.855,1.855,0,0,0,1.786,2.732h9.143a3.166,3.166,0,0,0,3.047-2.1l20.6-46.134h0.315Zm23.539,0.105a2.067,2.067,0,0,0,2,2h9.563a2,2,0,0,0,2-2V41.89h0.1L428.5,90.125h2.522a1.976,1.976,0,0,0,2-1.891V17.51a2.067,2.067,0,0,0-2-2h-9.668a2,2,0,0,0-2,2v43.4h-0.105L375.535,14.462h-2.627a1.976,1.976,0,0,0-2,1.892V87.078Z"/>
  <path id="Olian_copy_3-2" data-name="Olian copy 3" class="cls-2" d="M-0.007,52.14C-0.007,81.032,22.773,104,51.427,104A51.454,51.454,0,0,0,103.005,52.14c0-28.892-22.923-52.149-51.578-52.149S-0.007,23.249-.007,52.14Zm18.625,0c0-18.2,14.757-33.37,32.809-33.37S84.38,33.939,84.38,52.14A32.881,32.881,0,1,1,18.618,52.14Z"/>
  <path id="Olian_copy_3-3" data-name="Olian copy 3" class="cls-1" d="M28.824,52.062a22.669,22.669,0,1,0,45.334,0"/>
</svg>
