<?xml version="1.0" standalone="no"?>
<!DOCTYPE svg PUBLIC "-//W3C//DTD SVG 20010904//EN"
 "http://www.w3.org/TR/2001/REC-SVG-20010904/DTD/svg10.dtd">
<svg version="1.0" xmlns="http://www.w3.org/2000/svg"
 width="327.000000pt" height="595.000000pt" viewBox="0 0 327.000000 595.000000"
 preserveAspectRatio="xMidYMid meet">

<g transform="translate(0.000000,595.000000) scale(0.100000,-0.100000)"
fill="#000000" stroke="none">
<path d="M775 5936 c-49 -7 -144 -25 -210 -39 -66 -15 -136 -29 -155 -32 -154
-25 -331 -94 -375 -146 -45 -55 -27 -146 44 -213 58 -55 135 -48 461 42 224
61 256 65 470 57 236 -8 295 -2 332 36 75 74 -15 241 -154 284 -71 22 -295 28
-413 11z"/>
<path d="M2214 5905 c-128 -23 -174 -43 -257 -112 -58 -49 -77 -81 -77 -130 0
-31 7 -50 27 -74 l27 -32 116 7 c287 16 359 18 425 7 112 -17 139 -22 158 -32
9 -5 17 -8 17 -5 0 4 117 -33 160 -51 8 -3 17 -7 20 -8 3 0 44 -13 91 -28 91
-28 175 -35 212 -16 32 17 87 70 103 101 19 37 18 101 -3 126 -12 13 -103 49
-261 101 -296 98 -397 126 -527 146 -117 17 -136 17 -231 0z"/>
<path d="M765 5363 c-64 -17 -105 -79 -148 -223 -60 -198 -83 -397 -74 -640
15 -384 96 -693 259 -980 94 -167 225 -298 393 -395 107 -61 168 -137 220
-275 25 -63 29 -241 16 -625 -6 -175 -16 -674 -22 -1108 -13 -853 -12 -882 38
-982 61 -124 154 -162 261 -108 41 21 96 95 112 151 10 32 25 251 45 647 3 61
7 153 10 205 3 52 7 154 10 225 7 163 27 614 44 980 4 88 9 241 10 340 2 216
14 342 36 384 9 17 34 40 58 52 80 41 221 144 303 222 207 196 323 426 369
734 16 109 22 414 10 538 -33 344 -70 600 -95 668 -43 115 -153 182 -243 148
-43 -17 -74 -60 -87 -121 -15 -68 -9 -453 10 -655 16 -177 8 -405 -20 -515
-44 -178 -178 -372 -344 -496 -159 -120 -279 -132 -486 -47 -173 71 -339 201
-392 308 -95 191 -136 482 -140 990 -1 148 0 152 41 295 57 197 60 219 28 256
-24 28 -29 29 -114 31 -48 1 -97 -1 -108 -4z"/>
<path d="M1445 5014 c-154 -101 -265 -423 -265 -768 0 -159 31 -265 82 -282
34 -10 67 5 97 47 29 39 45 84 125 342 39 125 79 187 120 187 32 0 82 -35 110
-77 27 -42 46 -109 71 -253 25 -141 44 -202 74 -233 22 -25 32 -28 64 -24 45
6 72 28 97 77 26 52 33 94 32 205 -2 293 -156 690 -296 762 -51 27 -127 43
-201 43 -59 0 -77 -5 -110 -26z"/>
<path d="M480 2662 c-29 -14 -35 -23 -38 -54 -6 -76 77 -163 223 -233 83 -40
192 -81 240 -91 261 -55 375 -28 375 89 0 72 -34 122 -111 165 -51 28 -334
121 -405 132 -96 16 -243 12 -284 -8z"/>
<path d="M2630 2594 c-72 -13 -178 -36 -200 -44 -14 -4 -59 -18 -100 -30 -108
-33 -180 -67 -217 -102 -29 -28 -33 -38 -33 -86 0 -102 53 -162 144 -162 53 0
242 48 360 92 229 84 349 189 305 266 -29 51 -64 67 -152 69 -45 0 -93 -1
-107 -3z"/>
<path d="M487 2030 c-40 -12 -57 -29 -57 -57 0 -124 198 -256 500 -334 146
-37 299 -24 340 29 11 13 20 39 20 56 0 65 -88 163 -176 196 -16 6 -96 31
-179 55 -202 58 -369 79 -448 55z"/>
<path d="M2645 2010 c-27 -4 -86 -19 -130 -34 -44 -15 -87 -28 -95 -30 -40
-10 -182 -62 -240 -88 -88 -39 -100 -52 -100 -106 0 -82 51 -148 131 -170 62
-17 347 63 502 140 139 69 198 143 176 222 -15 54 -39 69 -121 72 -40 1 -95
-1 -123 -6z"/>
<path d="M512 1380 c-80 -12 -110 -27 -117 -61 -16 -71 79 -178 215 -241 79
-37 213 -87 255 -94 16 -3 48 -9 70 -14 67 -16 183 -12 222 7 45 21 73 67 73
120 0 81 -67 127 -317 217 -104 38 -171 56 -223 60 -41 4 -86 9 -100 10 -14 2
-49 0 -78 -4z"/>
<path d="M2699 1366 c-2 -2 -24 -7 -49 -10 -93 -11 -410 -106 -476 -143 -90
-50 -95 -56 -101 -115 -7 -67 12 -110 57 -128 51 -21 274 -7 390 25 237 65
397 167 416 263 17 82 -23 112 -149 112 -46 0 -86 -2 -88 -4z"/>
</g>
</svg>
