<?xml version="1.0" encoding="UTF-8" standalone="no"?>
<svg
   xmlns:dc="http://purl.org/dc/elements/1.1/"
   xmlns:cc="http://creativecommons.org/ns#"
   xmlns:rdf="http://www.w3.org/1999/02/22-rdf-syntax-ns#"
   xmlns:svg="http://www.w3.org/2000/svg"
   xmlns="http://www.w3.org/2000/svg"
   xmlns:sodipodi="http://sodipodi.sourceforge.net/DTD/sodipodi-0.dtd"
   xmlns:inkscape="http://www.inkscape.org/namespaces/inkscape"
   version="1.1"
   id="svg1007"
   width="50.539001"
   height="79.770042"
   viewBox="0 0 50.539001 79.770041"
   sodipodi:docname="saffron_finance_logo.svg"
   inkscape:version="0.92.4 (5da689c313, 2019-01-14)">
  <metadata
     id="metadata1013">
    <rdf:RDF>
      <cc:Work
         rdf:about="">
        <dc:format>image/svg+xml</dc:format>
        <dc:type
           rdf:resource="http://purl.org/dc/dcmitype/StillImage" />
        <dc:title></dc:title>
      </cc:Work>
    </rdf:RDF>
  </metadata>
  <defs
     id="defs1011" />
  <sodipodi:namedview
     pagecolor="#ffffff"
     bordercolor="#666666"
     borderopacity="1"
     objecttolerance="10"
     gridtolerance="10"
     guidetolerance="10"
     inkscape:pageopacity="0"
     inkscape:pageshadow="2"
     inkscape:window-width="1920"
     inkscape:window-height="1148"
     id="namedview1009"
     showgrid="false"
     inkscape:zoom="4"
     inkscape:cx="-11.684271"
     inkscape:cy="31.77047"
     inkscape:window-x="1912"
     inkscape:window-y="-8"
     inkscape:window-maximized="1"
     inkscape:current-layer="g1015"
     fit-margin-top="0"
     fit-margin-left="0"
     fit-margin-right="0"
     fit-margin-bottom="0" />
  <g
     inkscape:groupmode="layer"
     inkscape:label="Image"
     id="g1015"
     style="display:inline"
     transform="translate(-45.7705,-31.15498)">
    <path
       style="fill:#000000;stroke-width:0.31999999"
       d="m 66.589161,90.764396 c 0.09955,-20.160631 0.09955,-20.160631 -1.020448,-20.329101 -4.693382,-0.705984 -7.688211,-1.767939 -11.01665,-3.906458 -4.471443,-2.872899 -7.247728,-6.792931 -8.363788,-11.809414 -0.766279,-3.444275 -0.498314,-6.430003 0.968761,-10.794096 1.503869,-4.473552 1.548535,-5.991594 0.24921,-8.470336 l -0.991162,-1.890858 3.980531,-1.355654 c 4.52016,-1.539437 4.443744,-1.553681 5.615392,1.046621 1.157216,2.568256 1.03809,6.429475 -0.32582,10.56104 -1.370061,4.150192 -1.661853,6.108841 -1.295479,8.69591 0.710221,5.015056 4.000435,8.254778 9.816147,9.665507 3.141901,0.762138 11.050464,0.754032 13.842858,-0.01418 2.815536,-0.774585 5.532566,-2.26904 6.922618,-3.807657 3.104259,-3.436045 3.664352,-7.863789 1.749529,-13.830691 -1.739155,-5.419498 -1.645632,-10.076724 0.252899,-12.593661 0.567245,-0.752014 0.567245,-0.752014 3.741098,0.09777 5.772914,1.545658 5.362042,1.239139 4.190086,3.125875 -1.362694,2.193808 -1.321033,3.976804 0.21401,9.159232 1.752308,5.91594 1.592888,9.573677 -0.628518,14.420608 -1.54866,3.379056 -5.215648,6.969607 -8.864109,8.679332 -2.857415,1.33903 -7.759514,2.870848 -9.187239,2.870848 -1.66006,0 -1.828867,0.201052 -1.556601,1.853955 0.136441,0.828326 0.256659,9.894045 0.267152,20.146045 l 0.01908,18.639987 h -4.339552 -4.339552 z m -20.220448,9.920634 v -3.840004 h 7.84 7.84 v 3.840004 3.83999 h -7.84 -7.84 z m 33.28,0 v -3.840004 h 7.84 7.84 v 3.840004 3.83999 h -7.84 -7.84 z m -33.28,-12.480007 v -3.84 h 7.84 7.84 v 3.84 3.84 h -7.84 -7.84 z m 33.28,0 v -3.84 h 7.84 7.84 v 3.84 3.84 h -7.84 -7.84 z m -33.28,-12.48 v -3.84 h 7.84 7.84 v 3.84 3.84 h -7.84 -7.84 z m 33.28,0 v -3.84 h 7.84 7.84 v 3.84 3.84 h -7.84 -7.84 z m -5.397398,-17.68 c -0.9064,-1.804 -2.125191,-4.619149 -2.70842,-6.255888 l -1.060419,-2.975888 -0.545299,2.015888 c -0.653021,2.414102 -4.346611,10.183686 -4.828678,10.157267 -0.186884,-0.01024 -1.883444,-0.76624 -3.770135,-1.68 l -3.430349,-1.661379 4.550349,-8.552221 4.550349,-8.552224 3.533901,-0.0078 3.533901,-0.0078 4.568713,8.510717 c 2.512794,4.680896 4.522538,8.550861 4.466099,8.59992 -0.233568,0.203034 -6.89023,3.68936 -7.044329,3.68936 -0.09222,0 -0.90928,-1.476 -1.815683,-3.28 z"
       id="path1019"
       inkscape:connector-curvature="0" />
  </g>
</svg>
