<svg xmlns="http://www.w3.org/2000/svg" width="111" height="47" viewBox="0 0 111 47">
  <defs>
    <style>
      .cls-1 {
        fill: #151d2e;
        fill-rule: evenodd;
      }
    </style>
  </defs>
  <path id="Stacy_C." data-name="Stacy C." class="cls-1" d="M15.029,35.159a0.329,0.329,0,0,1-.185.079,1.126,1.126,0,0,1-.477,0,0.645,0.645,0,0,1-.222-0.527Q14.026,33.9,13.9,33.334a5.4,5.4,0,0,0-.281-0.933,3.833,3.833,0,0,0-.534-0.958,7.932,7.932,0,0,0-.844-0.954,8.639,8.639,0,0,1-.919-0.757Q10.492,29,8.951,27.674,7.837,26.718,7.1,26.027T5.972,24.876a7.166,7.166,0,0,1-.887-1.321,4.267,4.267,0,0,1-.432-1.325A3.482,3.482,0,0,1,5.263,20.1a17.421,17.421,0,0,1,2.311-2.98,1.717,1.717,0,0,1,.25-0.2,0.574,0.574,0,0,1,.224-0.095l0.2,0.095A1.753,1.753,0,0,1,7.5,18.051a1.765,1.765,0,0,0-.737,1.341A0.667,0.667,0,0,0,7,19.855a0.609,0.609,0,0,0,.47.1,4.884,4.884,0,0,0,1.909-1.263q1.32-1.177,3.436-3.435a1.358,1.358,0,0,0,.25-0.772,6.073,6.073,0,0,0-.071-1.409,1.828,1.828,0,0,0-.507-1.128,1.24,1.24,0,0,0-1.064-.259,3.329,3.329,0,0,0-.979.392,14.936,14.936,0,0,0-1.572,1.017q-0.652.365-1.167,0.668a4.657,4.657,0,0,0-.656.407,3.469,3.469,0,0,0-.484.444,7.978,7.978,0,0,1-.694.64q-0.316.254-.541,0.411a21.447,21.447,0,0,0-2.58,2.771,8.051,8.051,0,0,0-1.282,2.291q-0.052.215-.089,0.386a2.991,2.991,0,0,1-.08.3A4.335,4.335,0,0,0,.87,22.793a5.287,5.287,0,0,0,0,1.523A7.137,7.137,0,0,0,1.4,26.25a3.012,3.012,0,0,0,.84,1.142q0.276,0.188.474,0.335T3.027,27.98a1.109,1.109,0,0,1,.284.311q0.17,0.245.453,0.618a3.145,3.145,0,0,0,.388.389,4.672,4.672,0,0,0,.557.406Q5.5,30.168,6.381,30.8a20.17,20.17,0,0,1,1.787,1.449,16.182,16.182,0,0,1,1.821,1.827,2.961,2.961,0,0,1,.706,1.285,1.16,1.16,0,0,1-.168.626,5.011,5.011,0,0,1-.66.946l-0.029.087,0.17,0.452a2.568,2.568,0,0,1-.737,1.123,3.036,3.036,0,0,1-1.051.962,0.383,0.383,0,0,1-.273-0.167,1.471,1.471,0,0,1,.7-0.652A1.113,1.113,0,0,0,9.3,37.7a0.443,0.443,0,0,0-.191-0.314,0.684,0.684,0,0,0-.486-0.064q-2.055,1.4-4.173,2.786a6.091,6.091,0,0,0-1.568,1.328A1.664,1.664,0,0,0,2.462,42.7a0.871,0.871,0,0,0,.35.55,3.752,3.752,0,0,0,.837.479,6.314,6.314,0,0,0,.907.251A2.237,2.237,0,0,0,5.285,44q0.507-.219.895-0.4a14.55,14.55,0,0,0,3.272-2.217,23.777,23.777,0,0,0,3.138-3.416q1.524-.347,2.465-0.649a3.179,3.179,0,0,0,1.192-.567L15.162,35A1.242,1.242,0,0,1,15.029,35.159Zm0.757-.059a1.132,1.132,0,0,1,.134.208q0.234,0.463.441,0.816T16.7,36.707q0.158-.334.291-0.561a3.233,3.233,0,0,0,.179-0.337q0.927-1.172,1.817-2.317a14.43,14.43,0,0,0,.992-1.3,7.451,7.451,0,0,0,.642-1.14l0.185-.151a0.235,0.235,0,0,1,.189.159q-0.163.584-.316,1.1-0.027.812-.033,1.621-0.013.479-.024,0.832a3.363,3.363,0,0,0,.019.557,2.266,2.266,0,0,1-.081.3,6.194,6.194,0,0,0-.061,1.429q0.045,0.874.217,2.051a2.5,2.5,0,0,0,.671,1.539,1.642,1.642,0,0,0,1.406.333,1.987,1.987,0,0,0,.838-0.361,3.472,3.472,0,0,0,.842-0.9q0.309-.439.6-0.9t0.6-.917q0.312-.419.576-0.737t0.435-.571q0.457-.419.778-0.777a5.869,5.869,0,0,0,.491-0.611L26.9,33.31q-1.191,1.355-1.866,2.055a3.539,3.539,0,0,1-.8.718,0.338,0.338,0,0,1-.328-0.118,0.941,0.941,0,0,1-.173-0.472,10.986,10.986,0,0,1-.035-1.446q0.019-1.08.1-2.833,0.218-2.208.416-3.833t0.4-2.69q0.045-.4.063-0.7t0.029-.512l1.334-.485a0.706,0.706,0,0,0,.255-0.732,12.146,12.146,0,0,0-.163-1.893,1.959,1.959,0,0,0-.12-0.47,0.456,0.456,0,0,0-.21-0.249,1.56,1.56,0,0,1-.241-0.182,1.064,1.064,0,0,1-.135-0.156,5.485,5.485,0,0,1,.148-1.193,3.88,3.88,0,0,0,.1-1.268,1.343,1.343,0,0,0-.394-0.854,0.95,0.95,0,0,0-.8-0.195q-0.915.134-1.439,2.158t-1.223,2.21l-0.7-.1-0.542.193q-0.247.088-.5,0.187a3.505,3.505,0,0,0-.6-0.015,9.226,9.226,0,0,0-.94.1q-0.256.1-.551,0.2a8.739,8.739,0,0,0-.9,0,10.683,10.683,0,0,0-1.073.1,0.917,0.917,0,0,0-.742.813,5.678,5.678,0,0,0,.017,2.029,0.433,0.433,0,0,0,.178.3,0.95,0.95,0,0,0,.407.158q0.174,0.058.357,0.1t0.4,0.118q0.162-.024.541-0.058T17.7,24.23l2.537-.371a1.827,1.827,0,0,0,.406-0.132,1.84,1.84,0,0,1,.385-0.129,0.283,0.283,0,0,1,.212.031,0.25,0.25,0,0,1,.087.174q-0.163.583-.313,0.978a5.961,5.961,0,0,1-.279.642,39.769,39.769,0,0,1-2.085,4.668A23.2,23.2,0,0,1,16.306,33.7q-0.216.363-.373,0.635t-0.255.452l-0.057.174A0.566,0.566,0,0,1,15.786,35.1Zm10.967-2.09a2.173,2.173,0,0,1-.187.349q0.242,0.38.446,0.712l0.367,0.6c0.068,0.087.124,0.165,0.169,0.234a0.525,0.525,0,0,1,.082.206,3,3,0,0,1,.022.432,3.5,3.5,0,0,0-.559,1.066,2.46,2.46,0,0,0-.081,1.079,2.054,2.054,0,0,0,.682,1.4,1.959,1.959,0,0,0,1.511.266,1.319,1.319,0,0,0,.427-0.2q0.285-.176.679-0.462,0.616-.463,1.1-0.887a8.859,8.859,0,0,0,.843-0.828q0.173-.232.592-0.77t1.022-1.372q0.465-.5.817-0.865l0.585-.6q0.135-.206.241-0.336t0.192-.246a1.1,1.1,0,0,1,.271.364,1.5,1.5,0,0,1,.106.368,3.682,3.682,0,0,0,1.164,2.151,2.687,2.687,0,0,0,2.139.454,3,3,0,0,0,1.1-.4,5.265,5.265,0,0,0,1.075-.872,11.8,11.8,0,0,0,.838-1q0.39-.523.794-1.018a7.813,7.813,0,0,0-.411-0.759q-0.26-.428-0.633-1a1.946,1.946,0,0,1-.259.287,2.423,2.423,0,0,1-.213.176q-0.119.183-.227,0.365t-0.224.385a2.3,2.3,0,0,1-.316.316,0.7,0.7,0,0,1-.34.153,1.174,1.174,0,0,1-1.06-.374,1.853,1.853,0,0,1-.526-1.115q-0.136-.933-0.244-1.954a2.084,2.084,0,0,0-.41-0.966,0.74,0.74,0,0,0-.7-0.24,2.8,2.8,0,0,0-1.423.757,8.649,8.649,0,0,0-1.5,1.909q-0.165.148-.295,0.25l-0.26.2a6.558,6.558,0,0,0-.543.608q-0.379.46-.976,1.189a9.572,9.572,0,0,1-.942,1.07,3.474,3.474,0,0,1-.862.623l-0.169-.162q0.467-.918.758-1.479a6.57,6.57,0,0,1,.412-0.723q0.991-1.16,1.567-1.97a4.768,4.768,0,0,0,.714-1.286,9.013,9.013,0,0,0,.662-0.719q0.245-.3.332-0.422,0.112-.223.277-0.517a9.318,9.318,0,0,0,.958-1.1A9.912,9.912,0,0,0,37,25.327q0.523-.532.977-0.972a1.379,1.379,0,0,0,.4-0.618,1.768,1.768,0,0,0,.043-0.773,0.8,0.8,0,0,0-.346-0.592,1.172,1.172,0,0,0-.814-0.109,4.741,4.741,0,0,0-2.216,1.215,22.162,22.162,0,0,0-2.854,3.091,6.061,6.061,0,0,1-.66.729q-0.311.284-.516,0.438-0.408.474-.667,0.823a6.592,6.592,0,0,0-.393.576,2.792,2.792,0,0,0-.49.4,1.421,1.421,0,0,0-.31.5,3.566,3.566,0,0,1-.252.545q-0.117.193-.2,0.309L27.023,32.38Q26.871,32.755,26.753,33.01Zm16.19-1.071a9.606,9.606,0,0,1,.478.863,2.311,2.311,0,0,1-.027.522,2.3,2.3,0,0,0-.024.543,5.959,5.959,0,0,0,.216.984,1.874,1.874,0,0,0,.355.653,2.381,2.381,0,0,0,.528.493,7.1,7.1,0,0,0,.841.509q0.471,0.242,1.139.559a2.061,2.061,0,0,0,.531.088,3.575,3.575,0,0,0,.7-0.04,8.633,8.633,0,0,0,3-.967,6.768,6.768,0,0,0,2.14-1.878,7.293,7.293,0,0,1,.477-0.567,6.8,6.8,0,0,0,1.613-1.3q0.678-.752,1.34-1.47-0.015-.1-1.085-1.748-0.442.521-.747,0.918a5.955,5.955,0,0,0-.469.69,1.373,1.373,0,0,1-.283.259,2.883,2.883,0,0,0-.234.169q-0.642.571-1.3,1.122T50.845,33.4q-0.582.272-1.063,0.456a5.466,5.466,0,0,0-.767.351,8.086,8.086,0,0,1-.924-0.155,2.819,2.819,0,0,1-.6-0.2,1.25,1.25,0,0,1-.5-0.476,2.065,2.065,0,0,1-.259-0.781,4.7,4.7,0,0,1-.046-1.092,3.666,3.666,0,0,1,.19-0.9,3.746,3.746,0,0,1,.429-0.612q0.316-.388.8-0.894,1.061-1.108,1.679-1.769a6.916,6.916,0,0,0,.751-0.887q0.417-.268.828-0.577t0.828-.577a3.232,3.232,0,0,0,.881-0.989,1.738,1.738,0,0,0,.182-1.094l-0.163-1.116a0.709,0.709,0,0,0-.272-0.375,0.646,0.646,0,0,0-.48-0.1,4.684,4.684,0,0,0-1.814.845,4.615,4.615,0,0,0-1.43,1.349,9.708,9.708,0,0,0-1.2.89,11.009,11.009,0,0,0-1.227,1.247q-1.049,1.19-2.167,2.472a6.055,6.055,0,0,1-.574.54q-0.305.252-.577,0.519a6.734,6.734,0,0,0-.647.82,1.032,1.032,0,0,0-.207.569l-0.159.189Q42.672,31.5,42.943,31.94Zm12.423-2.624a1.129,1.129,0,0,1,.134.208q0.234,0.463.439,0.806t0.346,0.592q0.5-.55.858-0.934T57.7,29.41l0.075-.052a0.341,0.341,0,0,1,.339.261,3.44,3.44,0,0,1,.225.9q0,0.435-.029.792,0.175,0.347.286,0.538-0.025.252-.029,0.44a1.927,1.927,0,0,0,.014.309,1.254,1.254,0,0,0,.486.913,1.473,1.473,0,0,0,1.061.166,2.941,2.941,0,0,0,2.511-2.108,6.085,6.085,0,0,0,1.231-1.081,9.255,9.255,0,0,0,1.148-1.65q0.436-.561.819-0.99a4.284,4.284,0,0,1,.722-0.665,1.763,1.763,0,0,1,.146.362,0.578,0.578,0,0,0,.082.206q0.009,0.911-.022,1.692a9.674,9.674,0,0,1-.148,1.4q-0.3,1.08-.5,1.877T65.72,34.083a3.936,3.936,0,0,1-.087.469q-0.059.236-.116,0.411-0.41.6-.989,1.461T63.26,38.38q-0.924,1.482-1.419,2.415a6.493,6.493,0,0,0-.584,1.319q-0.175.212-.306,0.376a2.375,2.375,0,0,0-.2.277,1.529,1.529,0,0,1-.028.377L60.2,43.76A12.226,12.226,0,0,1,59.658,45a2.3,2.3,0,0,0-.27.7,1.679,1.679,0,0,0-.027.522,0.735,0.735,0,0,0,.286.538,0.964,0.964,0,0,0,.676.088A4.3,4.3,0,0,0,62.645,45.6,13.035,13.035,0,0,0,64.9,42.472q0.322-.628,1.02-2.16t1.73-3.963A16.017,16.017,0,0,1,69.679,33a31.731,31.731,0,0,1,3.275-3.6,4.382,4.382,0,0,0,.546-0.587l0.338-.453-1.085-1.748q-1.088,1.465-1.817,2.348a6.374,6.374,0,0,1-1.124,1.149l-0.168-.162q0.242-1.32.465-2.42t0.458-1.9q0.231-1.256.386-2.181t0.208-1.554c0-.083.006-0.17,0.014-0.261a1.233,1.233,0,0,0-.01-0.278,0.609,0.609,0,0,0-.309-0.483,1.187,1.187,0,0,0-.725-0.07,3.013,3.013,0,0,0-1.137.373,1.733,1.733,0,0,0-.658.677q-0.546.805-.989,1.388t-0.8.967q-0.9,1.189-1.57,2.095t-1.122,1.47q-0.57.643-1.032,1.094t-0.813.751l-0.1.035a0.313,0.313,0,0,1-.225-0.05,0.37,0.37,0,0,1-.133-0.271,9.18,9.18,0,0,1,.217-2.767,9.165,9.165,0,0,0,.235-2.646,0.993,0.993,0,0,0-.387-0.731,1.118,1.118,0,0,0-.8-0.132,1.672,1.672,0,0,0-.744.316,4.006,4.006,0,0,0-.71.684l-0.981,1.4q-0.413.589-.665,1a13.914,13.914,0,0,1-1.265,1.345A10.719,10.719,0,0,0,55.2,29.174,0.565,0.565,0,0,1,55.366,29.316Zm48.295-7.223a7.423,7.423,0,0,1-.839,1.066,4.612,4.612,0,0,1-1.023.8,4.345,4.345,0,0,0-.331.5c-0.081.15-.149,0.278-0.2,0.382a1.951,1.951,0,0,0-.725.282,2.649,2.649,0,0,0-.728.7q-0.443.231-.757,0.421a3.031,3.031,0,0,0-.5.363Q97.434,27,96.789,27.2t-0.746.213a4.8,4.8,0,0,1-2.17-.17A6.4,6.4,0,0,1,91.811,26.1q-0.314-.161-0.657-0.381a1.051,1.051,0,0,1-.292-0.227,1.067,1.067,0,0,1-.2-0.282,5.5,5.5,0,0,0-.438-1.014,4.6,4.6,0,0,0-.524-0.752q-0.475-.552-0.7-0.84a1.177,1.177,0,0,1-.243-0.389l-0.067-1.876q-0.216-.486-0.488-1.069,0.081-1.007.1-1.745t0.026-1.237a15.313,15.313,0,0,1,.3-3.309,18.652,18.652,0,0,1,1.038-3.4,11.843,11.843,0,0,1,1.966-3.21,5.524,5.524,0,0,1,2.424-1.639l0.558-.227a6.415,6.415,0,0,0,.725-0.355q0.551,0.086,1.105.118t1.1,0.078a1.724,1.724,0,0,1,.917.529,1.818,1.818,0,0,1,.419.954,1.932,1.932,0,0,1-.141.943,4.395,4.395,0,0,1-.705,1.17,4.027,4.027,0,0,0-.275,1.087q-0.142.86-.279,2.331-0.135,1.346-.176,2.2a7.354,7.354,0,0,0,0,1.14q0.177,0.783.35,1.545a2.251,2.251,0,0,1-.009.436,2.223,2.223,0,0,0-.006.457,0.246,0.246,0,0,0,.217.207,1.946,1.946,0,0,0,.639-0.021q0.9-.38,1.676-0.7a1.347,1.347,0,0,0,.407-0.754,18.539,18.539,0,0,0,.463-1.923q0.246-1.155.39-1.933a4.788,4.788,0,0,0,.118-1.105q0.064-1.253.082-2.2t0.049-1.572a5.939,5.939,0,0,0-.05-0.77q-0.061-.561-0.2-1.494a9.421,9.421,0,0,0-.83-2.988A1.745,1.745,0,0,0,99.226.833l-0.667-.027a2.642,2.642,0,0,0-1.1-.265,8.193,8.193,0,0,0-1.6.1,8.863,8.863,0,0,0-1.767.673,6.072,6.072,0,0,0-1.534.846q-0.179.192-.311,0.356a1.653,1.653,0,0,1-.224.24L91.386,3.2q-0.264.184-.454,0.294-0.6.751-1.031,1.239a6.666,6.666,0,0,1-.752.742q-0.309.439-.525,0.8t-0.369.593q-0.711.954-1.237,1.818a10.049,10.049,0,0,0-.826,1.654q-0.328,1.022-.646,2.1t-0.64,2.145a4.735,4.735,0,0,0-.123.505,1.216,1.216,0,0,0-.016.386l0.126,0.438a9.124,9.124,0,0,1-.171.958q-0.1.43-.2,0.734,0.034,1.508.054,2.355t0.044,1.009a1.788,1.788,0,0,0,.16.453q0.136,0.291.366,0.734l-0.09.946a2.548,2.548,0,0,0,.225.692q0.222,0.527.637,1.378l0.8,1.665a4.61,4.61,0,0,0,.683.916,8.4,8.4,0,0,0,1.153,1.013,7.76,7.76,0,0,0,1.315.844,1.942,1.942,0,0,0,.98.251l0.6,0,0.279,0.208a3.421,3.421,0,0,1,.627.033q0.38,0.048.928,0.113,0.444,0.059.833,0.1a2.937,2.937,0,0,0,.693-0.008,10.6,10.6,0,0,0,1.882-.451,7.459,7.459,0,0,0,1.684-.816,13.409,13.409,0,0,0,1.311-.886q0.775-.58,1.779-1.369,1.11-.909,1.925-1.649t1.354-1.3a20.537,20.537,0,0,0-1.084-1.748h0Zm7.037,2.671a3.914,3.914,0,0,0-.652-0.993,2.669,2.669,0,0,0-.95-0.752,1.848,1.848,0,0,0-1.025-.14,0.893,0.893,0,0,0-.513.251,0.981,0.981,0,0,0-.253.607c-0.025.211-.049,0.422-0.074,0.633s-0.054.43-.09,0.656l0.28,0.5-0.122.163a4.122,4.122,0,0,0,1.189,1.609,1.955,1.955,0,0,0,1.506.381,0.541,0.541,0,0,0,.374-0.21,1.177,1.177,0,0,0,.187-0.494,1.872,1.872,0,0,0,.382-0.574,1.087,1.087,0,0,0,.072-0.57A3.993,3.993,0,0,0,110.7,24.764Z"/>
</svg>
