<svg xmlns="http://www.w3.org/2000/svg" width="50" height="50" viewBox="0 0 50 50">
  <defs>
    <style>
      .cls-1 {
        fill: #c0d0ee;
      }

      .cls-2 {
        fill: #3366c7;
      }

      .cls-2, .cls-3 {
        fill-rule: evenodd;
      }

      .cls-3 {
        fill: #fff;
      }
    </style>
  </defs>
  <g id="user_1_copy" data-name="user_1 copy">
    <circle class="cls-1" cx="25" cy="25" r="25"/>
    <path class="cls-2" d="M831.22,886.745l-7.508-4.335a2.137,2.137,0,0,0-2.93.739l-7.369,12.762a2.137,2.137,0,0,0,.825,2.907l7.509,4.336a2.138,2.138,0,0,0,2.93-.74l0.117-.2,1.193-2.067,1.193-2.067,4.865-8.426a2.137,2.137,0,0,0-.825-2.907h0Zm-14.579,12.246-2.346-1.355a0.527,0.527,0,1,1,.526-0.912l2.347,1.355a0.527,0.527,0,1,1-.527.912h0Zm-1.236-4.361a0.534,0.534,0,0,1,.732-0.185l0.469,0.271a0.527,0.527,0,1,1-.526.912l-0.469-.271a0.534,0.534,0,0,1-.206-0.727h0Zm3.868-.2-2.346-1.354a0.527,0.527,0,1,1,.526-0.912l2.346,1.355a0.526,0.526,0,1,1-.526.911h0Zm-1.237-4.36a0.535,0.535,0,0,1,.733-0.185l0.469,0.271a0.527,0.527,0,1,1-.526.912l-0.47-.271a0.535,0.535,0,0,1-.206-0.727h0Zm3.869-.2-2.347-1.354a0.527,0.527,0,1,1,.526-0.912l2.347,1.355a0.526,0.526,0,1,1-.526.911h0Zm-1.237-4.36a0.534,0.534,0,0,1,.732-0.185l0.469,0.271a0.527,0.527,0,1,1-.526.912l-0.469-.271a0.534,0.534,0,0,1-.206-0.727h0Zm3.868-.2-2.346-1.355a0.527,0.527,0,1,1,.526-0.912l2.346,1.355a0.527,0.527,0,1,1-.526.912h0Zm0,0-1.237-4.361,9.386,5.419a0.534,0.534,0,0,0,.733-0.185l0.263-.456a0.534,0.534,0,0,0-.206-0.726l-9.386-5.419a0.535,0.535,0,0,0-.733.185l-0.263.455a0.535,0.535,0,0,0,.206.727h0Zm0,0" transform="translate(-800 -863)"/>
    <path class="cls-3" d="M832.413,882.251a2.525,2.525,0,0,1-.757-2.332l0.143-.727a1.942,1.942,0,0,1,1.127-1.38,1.547,1.547,0,0,0,.771-2,1.662,1.662,0,0,0-1.867-.992,1.547,1.547,0,0,0-1.236,1.642,1.955,1.955,0,0,1-.631,1.671l-0.559.488a2.528,2.528,0,0,1-2.4.51,1.449,1.449,0,0,0-1.252.205l7.106,4.1a1.455,1.455,0,0,0-.448-1.187h0Zm0,0" transform="translate(-800 -863)"/>
  </g>
</svg>
