<svg xmlns="http://www.w3.org/2000/svg" width="50" height="50" viewBox="0 0 50 50">
  <defs>
    <style>
      .cls-1 {
        fill: #e6f2cc;
      }

      .cls-2 {
        fill: #afd65a;
      }

      .cls-2, .cls-3 {
        fill-rule: evenodd;
      }

      .cls-3 {
        fill: #fff;
      }
    </style>
  </defs>
  <g id="Artboard_1_copy_4" data-name="Artboard 1 copy 4">
    <circle class="cls-1" cx="25" cy="25" r="25"/>
    <path class="cls-2" d="M942.69,882.993H941.9v1.523h0.79a4.508,4.508,0,0,0,2.62-.831l0.04-.029v-1.5h5.208V882.1a1.1,1.1,0,0,1,1.117-1.076h2.511v-0.761A4.345,4.345,0,0,0,949.768,876h-4.421l0,5.211a2.839,2.839,0,0,1-2.66,1.782h0Zm0,0,5.264,5.448a4.138,4.138,0,0,0-4.207,4.056v5.8h8.414v-5.8a4.138,4.138,0,0,0-4.207-4.056h0Zm0,0,2.6-3.468v-1.288H945.35v1.288a8.427,8.427,0,0,0-5.442,7.807V902H956v-9.22a8.427,8.427,0,0,0-5.442-7.807h0Zm3.184,14.851H942.166V892.5a5.792,5.792,0,0,1,11.576,0v7.327Zm0,0" transform="translate(-922 -863)"/>
    <path class="cls-3" d="M939,876h1.585v1.523H939V876Zm0,3.5h1.585v1.523H939V879.5Zm2.722,1.523h2.044V876h-2.044v1.748H940.7v1.524h1.024v1.748Zm0,0" transform="translate(-922 -863)"/>
  </g>
</svg>
