<svg xmlns="http://www.w3.org/2000/svg" width="50" height="50" viewBox="0 0 50 50">
  <defs>
    <style>
      .cls-1 {
        fill: #fdc8c8;
      }

      .cls-2 {
        fill: #f84e4e;
      }

      .cls-2, .cls-3 {
        fill-rule: evenodd;
      }

      .cls-3 {
        fill: #fff;
      }
    </style>
  </defs>
  <g id="Artboard_1_copy_4" data-name="Artboard 1 copy 4">
    <circle class="cls-1" cx="25" cy="25" r="25"/>
    <path class="cls-2" d="M898,879.1v6.2a0.383,0.383,0,0,1-.383.382h-3.876V887.8a0.385,0.385,0,0,1-.4.383c-0.761-.015-0.9.326-1.206,0.131a1.152,1.152,0,0,0-1.768.97,2.889,2.889,0,0,0,.044.5,0.383,0.383,0,0,1-.123.352,2.321,2.321,0,0,0-1.013,1.844v4.666a0.382,0.382,0,0,1-.383.382h-9.254a0.382,0.382,0,0,1-.383-0.382V885.686h-3.876A0.383,0.383,0,0,1,875,885.3v-6.2a0.382,0.382,0,0,1,.345-0.381l7.219-.721a0.382,0.382,0,0,1,.421.381,3.515,3.515,0,0,0,7.03,0,0.383,0.383,0,0,1,.421-0.381l7.219,0.721a0.382,0.382,0,0,1,.345.381h0Z" transform="translate(-861 -863)"/>
    <path class="cls-3" d="M896.111,890.979l-1.917-1.7a1.344,1.344,0,0,0-1.226-.293c-0.384.1-.383,0.656,0.072,0.847a0.377,0.377,0,0,1,.234.372,0.372,0.372,0,0,1-.542.33l-0.05-.023a1.377,1.377,0,0,1-.778-1.233,0.383,0.383,0,0,0-.4-0.383,0.393,0.393,0,0,0-.364.4,2.128,2.128,0,0,0,.218.922l-0.858.759a1.342,1.342,0,0,0-.451,1v5.678a1.341,1.341,0,0,0,1.342,1.34h3.833a1.341,1.341,0,0,0,1.342-1.34v-5.678a1.34,1.34,0,0,0-.452-1h0Zm0,0" transform="translate(-861 -863)"/>
  </g>
</svg>
