<svg xmlns="http://www.w3.org/2000/svg" width="50" height="50" viewBox="0 0 50 50">
  <defs>
    <style>
      .cls-1 {
        fill: #feeec0;
      }

      .cls-2 {
        fill: #fdc933;
      }

      .cls-2, .cls-3 {
        fill-rule: evenodd;
      }

      .cls-3 {
        fill: #fff;
      }
    </style>
  </defs>
  <g id="Artboard_1_copy_4" data-name="Artboard 1 copy 4">
    <circle class="cls-1" cx="25" cy="25" r="25"/>
    <path class="cls-2" d="M1009.39,882.96l-1.81.483a0.248,0.248,0,0,0-.17.3l0.68,2.547a0.247,0.247,0,0,0,.3.172l1.81-.483a0.239,0.239,0,0,0,.17-0.3l-0.68-2.547a0.247,0.247,0,0,0-.3-0.173h0Zm0,0,10.46,9.33-1.5.4-2.83-10.565a0.781,0.781,0,0,0-.96-0.551l-3.18.852a0.239,0.239,0,0,0-.17.3l0.94,3.537a0.772,0.772,0,0,1-.55.958l-3.8,1.017a0.781,0.781,0,0,1-.96-0.551l-0.95-3.538a0.243,0.243,0,0,0-.3-0.172l-2.42.648-1.51-5.659a3.537,3.537,0,0,0-6.839,1.81,0.8,0.8,0,0,0,.944.577,0.785,0.785,0,0,0,.58-0.964,1.964,1.964,0,0,1,3.795-1.017l3.48,13a0.248,0.248,0,0,0,.33.164,4.6,4.6,0,0,1,.49-0.16,4.7,4.7,0,0,1,5.76,3.308,4.428,4.428,0,0,1,.11.5,0.238,0.238,0,0,0,.3.2l9.66-2.587a0.792,0.792,0,0,0,.55-1,0.8,0.8,0,0,0-.97-0.509h0Zm0,0" transform="translate(-983 -863)"/>
    <path class="cls-3" d="M1006.46,899.921a3.125,3.125,0,1,1,2.23-3.832,3.141,3.141,0,0,1-2.23,3.832h0Zm0,0" transform="translate(-983 -863)"/>
  </g>
</svg>
