<svg xmlns="http://www.w3.org/2000/svg" width="1920" height="1080" viewBox="0 0 1920 1080">
  <defs>
    <style>
      .cls-1 {
        fill: #fff;
        fill-rule: evenodd;
        opacity: 0.5;
      }
    </style>
  </defs>
  <path id="Olian_copy_25" data-name="Olian copy 25" class="cls-1" d="M6,51.764A19.876,19.876,0,0,0,26.076,71.686a19.978,19.978,0,1,0,0-39.954A19.969,19.969,0,0,0,6,51.764Zm7.269,0a12.833,12.833,0,1,1,12.8,12.708A12.885,12.885,0,0,1,13.272,51.764Zm3.983-.03a8.846,8.846,0,0,0,17.693,0m67.38,0.03A20.1,20.1,0,1,0,122.4,31.732,19.876,19.876,0,0,0,102.327,51.765Zm7.269,0a12.833,12.833,0,1,1,12.8,12.708A12.885,12.885,0,0,1,109.6,51.765Zm3.983-.03a8.846,8.846,0,0,0,17.692,0m67.38,0.03a20.1,20.1,0,1,0,20.073-20.033A19.877,19.877,0,0,0,198.651,51.765Zm7.269,0a12.833,12.833,0,1,1,12.805,12.708A12.885,12.885,0,0,1,205.92,51.765Zm3.983-.03a8.846,8.846,0,0,0,17.692,0m67.38,0.031a20.1,20.1,0,1,0,20.074-20.033A19.877,19.877,0,0,0,294.975,51.766Zm7.269,0a12.833,12.833,0,1,1,12.8,12.708A12.885,12.885,0,0,1,302.244,51.766Zm3.983-.03a8.847,8.847,0,0,0,17.693,0M391.3,51.767a20.1,20.1,0,1,0,20.074-20.033A19.877,19.877,0,0,0,391.3,51.767Zm7.269,0a12.833,12.833,0,1,1,12.805,12.708A12.885,12.885,0,0,1,398.568,51.767Zm3.983-.03a8.847,8.847,0,0,0,17.693,0m67.379,0.03A20.1,20.1,0,1,0,507.7,31.735,19.877,19.877,0,0,0,487.623,51.768Zm7.269,0A12.834,12.834,0,1,1,507.7,64.475,12.886,12.886,0,0,1,494.892,51.768Zm3.983-.03a8.847,8.847,0,0,0,17.693,0m163.7,0.031a20.1,20.1,0,1,0,20.073-20.033A19.876,19.876,0,0,0,680.272,51.769Zm7.269,0a12.833,12.833,0,1,1,12.8,12.708A12.885,12.885,0,0,1,687.541,51.769Zm3.983-.03a8.846,8.846,0,0,0,17.692,0m-125.269.029a20.1,20.1,0,1,0,20.074-20.033A19.877,19.877,0,0,0,583.947,51.768Zm7.27,0a12.833,12.833,0,1,1,12.8,12.708A12.884,12.884,0,0,1,591.217,51.768Zm3.982-.03a8.847,8.847,0,0,0,17.693,0M775.837,51.77a20.1,20.1,0,1,0,20.074-20.033A19.877,19.877,0,0,0,775.837,51.77Zm7.269,0a12.834,12.834,0,1,1,12.8,12.708A12.886,12.886,0,0,1,783.106,51.77Zm3.983-.03a8.847,8.847,0,0,0,17.693,0m67.38,0.03a20.1,20.1,0,1,0,20.073-20.033A19.876,19.876,0,0,0,872.162,51.77Zm7.269,0a12.833,12.833,0,1,1,12.8,12.708A12.885,12.885,0,0,1,879.431,51.77Zm3.983-.03a8.846,8.846,0,0,0,17.692,0m67.38,0.031a20.1,20.1,0,1,0,20.073-20.033A19.876,19.876,0,0,0,968.486,51.771Zm7.269,0a12.833,12.833,0,1,1,12.8,12.708A12.885,12.885,0,0,1,975.755,51.771Zm3.983-.03a8.846,8.846,0,0,0,17.692,0m67.38,0.031a20.1,20.1,0,1,0,20.07-20.033A19.875,19.875,0,0,0,1064.81,51.772Zm7.27,0a12.831,12.831,0,1,1,12.8,12.708A12.885,12.885,0,0,1,1072.08,51.772Zm3.98-.03a8.845,8.845,0,0,0,17.69,0m67.38,0.03a20.105,20.105,0,1,0,20.08-20.033A19.877,19.877,0,0,0,1161.13,51.772Zm7.27,0a12.836,12.836,0,1,1,12.81,12.708A12.887,12.887,0,0,1,1168.4,51.772Zm3.99-.03a8.845,8.845,0,0,0,17.69,0m67.38,0.03a20.1,20.1,0,1,0,20.07-20.033A19.875,19.875,0,0,0,1257.46,51.773Zm7.27,0a12.831,12.831,0,1,1,12.8,12.708A12.885,12.885,0,0,1,1264.73,51.773Zm3.98-.03a8.845,8.845,0,0,0,17.69,0m67.38,0.031a20.105,20.105,0,1,0,20.08-20.033A19.877,19.877,0,0,0,1353.78,51.774Zm7.27,0a12.836,12.836,0,1,1,12.81,12.708A12.887,12.887,0,0,1,1361.05,51.774Zm3.98-.03a8.85,8.85,0,0,0,17.7,0M6,128.706a19.876,19.876,0,0,0,20.074,19.922,19.978,19.978,0,1,0,0-39.954A19.969,19.969,0,0,0,6,128.706Zm7.269,0a12.833,12.833,0,1,1,12.8,12.708A12.885,12.885,0,0,1,13.272,128.706Zm3.983-.03a8.846,8.846,0,0,0,17.693,0m67.379,0.03A20.1,20.1,0,1,0,122.4,108.674,19.876,19.876,0,0,0,102.327,128.707Zm7.269,0a12.833,12.833,0,1,1,12.8,12.708A12.886,12.886,0,0,1,109.6,128.707Zm3.983-.03a8.847,8.847,0,0,0,17.693,0m67.379,0.031a20.1,20.1,0,1,0,20.074-20.033A19.878,19.878,0,0,0,198.651,128.708Zm7.269,0a12.834,12.834,0,1,1,12.805,12.708A12.886,12.886,0,0,1,205.92,128.708Zm3.983-.03a8.847,8.847,0,0,0,17.693,0m67.38,0.03a20.1,20.1,0,1,0,20.073-20.032A19.875,19.875,0,0,0,294.976,128.708Zm7.269,0a12.833,12.833,0,1,1,12.8,12.707A12.885,12.885,0,0,1,302.245,128.709Zm3.983-.03a8.846,8.846,0,0,0,17.692,0m67.38,0.03a20.1,20.1,0,1,0,20.073-20.032A19.876,19.876,0,0,0,391.3,128.709Zm7.269,0a12.833,12.833,0,1,1,12.8,12.708A12.884,12.884,0,0,1,398.569,128.709Zm3.983-.03a8.846,8.846,0,0,0,17.692,0m67.38,0.031A20.1,20.1,0,1,0,507.7,108.677,19.877,19.877,0,0,0,487.624,128.71Zm7.269,0A12.833,12.833,0,1,1,507.7,141.418,12.885,12.885,0,0,1,494.893,128.71Zm3.983-.03a8.846,8.846,0,0,0,17.692,0m163.7,0.031a20.1,20.1,0,1,0,20.074-20.032A19.876,19.876,0,0,0,680.272,128.711Zm7.269,0a12.833,12.833,0,1,1,12.8,12.708A12.885,12.885,0,0,1,687.541,128.711Zm3.983-.03a8.847,8.847,0,0,0,17.693,0m-125.269.03a20.1,20.1,0,1,0,20.074-20.033A19.876,19.876,0,0,0,583.948,128.711Zm7.269,0a12.833,12.833,0,1,1,12.805,12.707A12.885,12.885,0,0,1,591.217,128.711Zm3.983-.03a8.847,8.847,0,0,0,17.693,0m162.945,0.031a20.1,20.1,0,1,0,20.073-20.033A19.877,19.877,0,0,0,775.838,128.712Zm7.269,0a12.833,12.833,0,1,1,12.805,12.708A12.885,12.885,0,0,1,783.107,128.712Zm3.983-.03a8.846,8.846,0,0,0,17.692,0m67.38,0.031a20.1,20.1,0,1,0,20.074-20.033A19.878,19.878,0,0,0,872.162,128.713Zm7.269,0a12.833,12.833,0,1,1,12.8,12.708A12.885,12.885,0,0,1,879.431,128.713Zm3.983-.03a8.847,8.847,0,0,0,17.693,0m67.379,0.03a20.1,20.1,0,1,0,20.074-20.032A19.876,19.876,0,0,0,968.486,128.713Zm7.269,0a12.833,12.833,0,1,1,12.8,12.708A12.885,12.885,0,0,1,975.755,128.713Zm3.983-.03a8.847,8.847,0,0,0,17.693,0m67.379,0.03a20.1,20.1,0,1,0,20.07-20.033A19.875,19.875,0,0,0,1064.81,128.714Zm7.27,0a12.831,12.831,0,1,1,12.8,12.708A12.885,12.885,0,0,1,1072.08,128.714Zm3.98-.03a8.845,8.845,0,0,0,17.69,0m67.38,0.031a20.105,20.105,0,1,0,20.08-20.033A19.884,19.884,0,0,0,1161.13,128.715Zm7.27,0a12.836,12.836,0,1,1,12.81,12.708A12.887,12.887,0,0,1,1168.4,128.715Zm3.99-.03a8.845,8.845,0,0,0,17.69,0m67.38,0.03a20.1,20.1,0,1,0,20.07-20.032A19.875,19.875,0,0,0,1257.46,128.715Zm7.27,0a12.831,12.831,0,1,1,12.8,12.708A12.884,12.884,0,0,1,1264.73,128.715Zm3.98-.029a8.845,8.845,0,0,0,17.69,0m67.38,0.03a20.105,20.105,0,1,0,20.08-20.032A19.877,19.877,0,0,0,1353.78,128.716Zm7.27,0a12.836,12.836,0,1,1,12.81,12.708A12.886,12.886,0,0,1,1361.05,128.716Zm3.98-.03a8.85,8.85,0,0,0,17.7,0M6,206.388A19.876,19.876,0,0,0,26.077,226.31a19.978,19.978,0,1,0,0-39.954A19.969,19.969,0,0,0,6,206.388Zm7.269,0a12.833,12.833,0,1,1,12.8,12.707A12.885,12.885,0,0,1,13.273,206.389Zm3.983-.03a8.846,8.846,0,0,0,17.693,0m67.38,0.03A20.1,20.1,0,1,0,122.4,186.357,19.876,19.876,0,0,0,102.328,206.389Zm7.269,0A12.833,12.833,0,1,1,122.4,219.1,12.884,12.884,0,0,1,109.6,206.389Zm3.983-.03a8.846,8.846,0,0,0,17.692,0m67.38,0.031a20.1,20.1,0,1,0,20.073-20.033A19.877,19.877,0,0,0,198.652,206.39Zm7.269,0A12.833,12.833,0,1,1,218.726,219.1,12.885,12.885,0,0,1,205.921,206.39Zm3.983-.03a8.846,8.846,0,0,0,17.692,0m67.38,0.031a20.1,20.1,0,1,0,20.074-20.033A19.876,19.876,0,0,0,294.976,206.391Zm7.269,0A12.833,12.833,0,1,1,315.05,219.1,12.885,12.885,0,0,1,302.245,206.391Zm3.983-.03a8.847,8.847,0,0,0,17.693,0m67.379,0.03a20.1,20.1,0,1,0,20.074-20.032A19.876,19.876,0,0,0,391.3,206.391Zm7.269,0A12.833,12.833,0,1,1,411.374,219.1,12.885,12.885,0,0,1,398.569,206.391Zm3.983-.03a8.847,8.847,0,0,0,17.693,0m67.38,0.031A20.1,20.1,0,1,0,507.7,186.359,19.876,19.876,0,0,0,487.625,206.392Zm7.268,0A12.834,12.834,0,1,1,507.7,219.1,12.886,12.886,0,0,1,494.893,206.392Zm3.983-.03a8.847,8.847,0,0,0,17.693,0m163.7,0.031a20.1,20.1,0,1,0,20.073-20.032A19.876,19.876,0,0,0,680.273,206.393Zm7.269,0a12.833,12.833,0,1,1,12.8,12.708A12.884,12.884,0,0,1,687.542,206.393Zm3.983-.03a8.846,8.846,0,0,0,17.692,0m-125.268.029a20.1,20.1,0,1,0,20.073-20.033A19.876,19.876,0,0,0,583.949,206.393Zm7.269,0a12.833,12.833,0,1,1,12.8,12.708A12.885,12.885,0,0,1,591.218,206.393Zm3.983-.03a8.846,8.846,0,0,0,17.692,0m162.946,0.031a20.1,20.1,0,1,0,20.073-20.033A19.875,19.875,0,0,0,775.839,206.394Zm7.269,0a12.833,12.833,0,1,1,12.8,12.708A12.884,12.884,0,0,1,783.108,206.394Zm3.982-.03a8.847,8.847,0,0,0,17.693,0m67.38,0.031a20.1,20.1,0,1,0,20.073-20.033A19.876,19.876,0,0,0,872.163,206.4Zm7.269,0a12.833,12.833,0,1,1,12.8,12.708A12.885,12.885,0,0,1,879.432,206.4Zm3.983-.03a8.846,8.846,0,0,0,17.692,0m67.38,0.03a20.1,20.1,0,1,0,20.073-20.032A19.876,19.876,0,0,0,968.487,206.4Zm7.269,0A12.833,12.833,0,1,1,988.561,219.1,12.885,12.885,0,0,1,975.756,206.4Zm3.983-.03a8.846,8.846,0,0,0,17.692,0m67.379,0.03a20.1,20.1,0,1,0,20.07-20.032A19.875,19.875,0,0,0,1064.81,206.4Zm7.27,0a12.836,12.836,0,1,1,12.8,12.708A12.884,12.884,0,0,1,1072.08,206.4Zm3.98-.03a8.85,8.85,0,0,0,17.7,0m67.38,0.031a20.1,20.1,0,1,0,20.07-20.033A19.875,19.875,0,0,0,1161.14,206.4Zm7.26,0a12.836,12.836,0,1,1,12.81,12.708A12.887,12.887,0,0,1,1168.4,206.4Zm3.99-.03a8.845,8.845,0,0,0,17.69,0m67.38,0.031a20.1,20.1,0,1,0,20.07-20.033A19.875,19.875,0,0,0,1257.46,206.4Zm7.27,0a12.831,12.831,0,1,1,12.8,12.707A12.885,12.885,0,0,1,1264.73,206.4Zm3.98-.03a8.845,8.845,0,0,0,17.69,0m67.38,0.03a20.105,20.105,0,1,0,20.08-20.032A19.877,19.877,0,0,0,1353.78,206.4Zm7.27,0a12.836,12.836,0,1,1,12.81,12.708A12.886,12.886,0,0,1,1361.05,206.4Zm3.99-.03a8.845,8.845,0,0,0,17.69,0M6,284.071a19.877,19.877,0,0,0,20.074,19.922,19.978,19.978,0,1,0,0-39.955A19.969,19.969,0,0,0,6,284.071Zm7.269,0a12.833,12.833,0,1,1,12.8,12.708A12.886,12.886,0,0,1,13.273,284.071Zm3.983-.03a8.846,8.846,0,0,0,17.693,0m67.379,0.03A20.1,20.1,0,1,0,122.4,264.039,19.876,19.876,0,0,0,102.328,284.071Zm7.269,0A12.834,12.834,0,1,1,122.4,296.779,12.885,12.885,0,0,1,109.6,284.071Zm3.983-.03a8.847,8.847,0,0,0,17.693,0m67.38,0.03a20.1,20.1,0,1,0,20.073-20.033A19.876,19.876,0,0,0,198.653,284.072Zm7.269,0a12.833,12.833,0,1,1,12.8,12.708A12.885,12.885,0,0,1,205.922,284.072Zm3.983-.03a8.846,8.846,0,0,0,17.692,0m67.38,0.031A20.1,20.1,0,1,0,315.05,264.04,19.876,19.876,0,0,0,294.977,284.073Zm7.269,0a12.833,12.833,0,1,1,12.8,12.708A12.885,12.885,0,0,1,302.246,284.073Zm3.983-.03a8.846,8.846,0,0,0,17.692,0m67.38,0.03a20.1,20.1,0,1,0,20.073-20.032A19.876,19.876,0,0,0,391.3,284.073Zm7.269,0a12.833,12.833,0,1,1,12.805,12.708A12.884,12.884,0,0,1,398.57,284.073Zm3.983-.03a8.846,8.846,0,0,0,17.692,0m67.38,0.03A20.1,20.1,0,1,0,507.7,264.042,19.876,19.876,0,0,0,487.625,284.074Zm7.269,0A12.833,12.833,0,1,1,507.7,296.782,12.884,12.884,0,0,1,494.894,284.074Zm3.983-.03a8.847,8.847,0,0,0,17.693,0m163.7,0.032a20.1,20.1,0,1,0,20.074-20.033A19.876,19.876,0,0,0,680.273,284.076Zm7.269,0a12.833,12.833,0,1,1,12.8,12.707A12.886,12.886,0,0,1,687.542,284.076Zm3.983-.03a8.847,8.847,0,0,0,17.693,0m-125.269.029a20.1,20.1,0,1,0,20.074-20.033A19.877,19.877,0,0,0,583.949,284.075Zm7.269,0a12.833,12.833,0,1,1,12.805,12.708A12.885,12.885,0,0,1,591.218,284.075Zm3.983-.03a8.847,8.847,0,0,0,17.693,0m162.945,0.031a20.1,20.1,0,1,0,20.074-20.032A19.876,19.876,0,0,0,775.839,284.076Zm7.269,0a12.833,12.833,0,1,1,12.805,12.708A12.885,12.885,0,0,1,783.108,284.076Zm3.983-.03a8.847,8.847,0,0,0,17.693,0m67.379,0.031a20.1,20.1,0,1,0,20.074-20.033A19.877,19.877,0,0,0,872.163,284.077Zm7.269,0a12.833,12.833,0,1,1,12.8,12.708A12.885,12.885,0,0,1,879.432,284.077Zm3.983-.03a8.847,8.847,0,0,0,17.693,0m67.379,0.031a20.1,20.1,0,1,0,20.074-20.033A19.878,19.878,0,0,0,968.487,284.078Zm7.269,0a12.833,12.833,0,1,1,12.805,12.708A12.886,12.886,0,0,1,975.756,284.078Zm3.983-.03a8.847,8.847,0,0,0,17.693,0m67.378,0.03a20.1,20.1,0,1,0,20.08-20.032A19.877,19.877,0,0,0,1064.81,284.078Zm7.27,0a12.836,12.836,0,1,1,12.81,12.708A12.886,12.886,0,0,1,1072.08,284.078Zm3.98-.03a8.85,8.85,0,0,0,17.7,0m67.38,0.03a20.1,20.1,0,1,0,20.07-20.033A19.875,19.875,0,0,0,1161.14,284.079Zm7.26,0a12.836,12.836,0,1,1,12.81,12.708A12.887,12.887,0,0,1,1168.4,284.079Zm3.99-.03a8.845,8.845,0,0,0,17.69,0m67.38,0.031a20.1,20.1,0,1,0,20.07-20.033A19.875,19.875,0,0,0,1257.46,284.08Zm7.27,0a12.831,12.831,0,1,1,12.8,12.708A12.885,12.885,0,0,1,1264.73,284.08Zm3.98-.03a8.845,8.845,0,0,0,17.69,0m67.38,0.03a20.105,20.105,0,1,0,20.08-20.032A19.877,19.877,0,0,0,1353.78,284.08Zm7.27,0a12.836,12.836,0,1,1,12.81,12.707A12.887,12.887,0,0,1,1361.05,284.081Zm3.99-.03a8.845,8.845,0,0,0,17.69,0M6,361.753a19.877,19.877,0,0,0,20.074,19.922,19.978,19.978,0,1,0,0-39.955A19.969,19.969,0,0,0,6,361.753Zm7.269,0a12.833,12.833,0,1,1,12.8,12.708A12.886,12.886,0,0,1,13.274,361.753Zm3.983-.03a8.846,8.846,0,0,0,17.693,0m67.38,0.03A20.1,20.1,0,1,0,122.4,341.721,19.876,19.876,0,0,0,102.329,361.753Zm7.269,0A12.833,12.833,0,1,1,122.4,374.461,12.885,12.885,0,0,1,109.6,361.754Zm3.983-.03a8.846,8.846,0,0,0,17.692,0m67.38,0.03a20.1,20.1,0,1,0,20.074-20.032A19.876,19.876,0,0,0,198.653,361.754Zm7.269,0a12.833,12.833,0,1,1,12.805,12.708A12.885,12.885,0,0,1,205.922,361.754Zm3.983-.03a8.847,8.847,0,0,0,17.693,0m67.379,0.031a20.1,20.1,0,1,0,20.074-20.033A19.877,19.877,0,0,0,294.977,361.755Zm7.269,0a12.833,12.833,0,1,1,12.805,12.708A12.885,12.885,0,0,1,302.246,361.755Zm3.983-.03a8.847,8.847,0,0,0,17.693,0m67.379,0.031a20.1,20.1,0,1,0,20.074-20.033A19.878,19.878,0,0,0,391.3,361.756Zm7.269,0a12.834,12.834,0,1,1,12.805,12.708A12.886,12.886,0,0,1,398.57,361.756Zm3.983-.03a8.847,8.847,0,0,0,17.693,0m67.38,0.03A20.1,20.1,0,1,0,507.7,341.724,19.875,19.875,0,0,0,487.626,361.756Zm7.269,0a12.833,12.833,0,1,1,12.8,12.708A12.884,12.884,0,0,1,494.9,361.756Zm3.983-.03a8.846,8.846,0,0,0,17.692,0m163.7,0.032a20.1,20.1,0,1,0,20.073-20.033A19.877,19.877,0,0,0,680.274,361.758Zm7.269,0a12.833,12.833,0,1,1,12.8,12.708A12.885,12.885,0,0,1,687.543,361.758Zm3.983-.03a8.846,8.846,0,0,0,17.692,0m-125.268.029a20.1,20.1,0,1,0,20.073-20.033A19.876,19.876,0,0,0,583.95,361.757Zm7.269,0a12.833,12.833,0,1,1,12.8,12.708A12.885,12.885,0,0,1,591.219,361.757Zm3.983-.03a8.846,8.846,0,0,0,17.692,0m162.946,0.031a20.1,20.1,0,1,0,20.073-20.032A19.875,19.875,0,0,0,775.84,361.758Zm7.269,0a12.833,12.833,0,1,1,12.8,12.708A12.884,12.884,0,0,1,783.109,361.758Zm3.983-.03a8.846,8.846,0,0,0,17.692,0m67.38,0.03a20.1,20.1,0,1,0,20.073-20.033A19.876,19.876,0,0,0,872.164,361.759Zm7.269,0a12.833,12.833,0,1,1,12.805,12.708A12.884,12.884,0,0,1,879.433,361.759Zm3.983-.03a8.846,8.846,0,0,0,17.692,0m67.38,0.031a20.1,20.1,0,1,0,20.073-20.033A19.877,19.877,0,0,0,968.488,361.76Zm7.269,0a12.832,12.832,0,1,1,12.805,12.708A12.885,12.885,0,0,1,975.757,361.76Zm3.983-.03a8.846,8.846,0,0,0,17.692,0m67.378,0.031a20.105,20.105,0,1,0,20.08-20.033A19.877,19.877,0,0,0,1064.81,361.761Zm7.27,0a12.836,12.836,0,1,1,12.81,12.707A12.887,12.887,0,0,1,1072.08,361.761Zm3.98-.03a8.85,8.85,0,0,0,17.7,0m67.38,0.03a20.1,20.1,0,1,0,20.07-20.032A19.875,19.875,0,0,0,1161.14,361.761Zm7.27,0a12.831,12.831,0,1,1,12.8,12.708A12.878,12.878,0,0,1,1168.41,361.761Zm3.98-.03a8.845,8.845,0,0,0,17.69,0m67.38,0.031a20.1,20.1,0,1,0,20.07-20.033A19.875,19.875,0,0,0,1257.46,361.762Zm7.27,0a12.831,12.831,0,1,1,12.8,12.708A12.885,12.885,0,0,1,1264.73,361.762Zm3.98-.03a8.845,8.845,0,0,0,17.69,0m67.38,0.031a20.105,20.105,0,1,0,20.08-20.033A19.883,19.883,0,0,0,1353.78,361.763Zm7.27,0a12.836,12.836,0,1,1,12.81,12.707A12.887,12.887,0,0,1,1361.05,361.763Zm3.99-.03a8.845,8.845,0,0,0,17.69,0M6.005,439.435a19.877,19.877,0,0,0,20.074,19.922,19.978,19.978,0,1,0,0-39.955A19.969,19.969,0,0,0,6.005,439.435Zm7.269,0a12.833,12.833,0,1,1,12.8,12.708A12.886,12.886,0,0,1,13.274,439.435Zm3.983-.03a8.846,8.846,0,0,0,17.693,0m67.38,0.031A20.1,20.1,0,1,0,122.4,419.4,19.877,19.877,0,0,0,102.33,439.436Zm7.269,0a12.833,12.833,0,1,1,12.8,12.708A12.885,12.885,0,0,1,109.6,439.436Zm3.982-.03a8.847,8.847,0,0,0,17.693,0m67.38,0.03A20.1,20.1,0,1,0,218.727,419.4,19.875,19.875,0,0,0,198.654,439.436Zm7.269,0a12.833,12.833,0,1,1,12.8,12.708A12.884,12.884,0,0,1,205.923,439.436Zm3.983-.03a8.846,8.846,0,0,0,17.692,0m67.38,0.03A20.1,20.1,0,1,0,315.051,419.4,19.876,19.876,0,0,0,294.978,439.437Zm7.269,0a12.833,12.833,0,1,1,12.805,12.708A12.885,12.885,0,0,1,302.247,439.437Zm3.983-.03a8.846,8.846,0,0,0,17.692,0m67.38,0.031a20.1,20.1,0,1,0,20.074-20.033A19.877,19.877,0,0,0,391.3,439.438Zm7.269,0a12.833,12.833,0,1,1,12.8,12.708A12.885,12.885,0,0,1,398.571,439.438Zm3.983-.03a8.847,8.847,0,0,0,17.693,0m67.379,0.03A20.1,20.1,0,1,0,507.7,419.406,19.876,19.876,0,0,0,487.626,439.438Zm7.269,0A12.833,12.833,0,1,1,507.7,452.146,12.885,12.885,0,0,1,494.9,439.438Zm3.983-.029a8.847,8.847,0,0,0,17.693,0m163.7,0.031a20.1,20.1,0,1,0,20.073-20.033A19.876,19.876,0,0,0,680.275,439.44Zm7.269,0a12.833,12.833,0,1,1,12.8,12.708A12.885,12.885,0,0,1,687.544,439.44Zm3.982-.03a8.847,8.847,0,0,0,17.693,0m-125.269.029a20.1,20.1,0,1,0,20.074-20.032A19.876,19.876,0,0,0,583.95,439.439Zm7.269,0a12.833,12.833,0,1,1,12.8,12.708A12.885,12.885,0,0,1,591.219,439.439Zm3.983-.03a8.847,8.847,0,0,0,17.693,0m162.945,0.032a20.1,20.1,0,1,0,20.074-20.033A19.876,19.876,0,0,0,775.84,439.441Zm7.269,0a12.833,12.833,0,1,1,12.8,12.707A12.885,12.885,0,0,1,783.109,439.441Zm3.983-.03a8.847,8.847,0,0,0,17.693,0m67.379,0.03a20.1,20.1,0,1,0,20.074-20.032A19.876,19.876,0,0,0,872.164,439.441Zm7.269,0a12.834,12.834,0,1,1,12.805,12.708A12.885,12.885,0,0,1,879.433,439.441Zm3.983-.03a8.847,8.847,0,0,0,17.693,0m67.38,0.031a20.1,20.1,0,1,0,20.073-20.033A19.876,19.876,0,0,0,968.489,439.442Zm7.269,0a12.832,12.832,0,1,1,12.8,12.708A12.885,12.885,0,0,1,975.758,439.442Zm3.982-.03a8.847,8.847,0,0,0,17.693,0m67.377,0.031a20.105,20.105,0,1,0,20.08-20.033A19.878,19.878,0,0,0,1064.81,439.443Zm7.27,0a12.836,12.836,0,1,1,12.81,12.708A12.887,12.887,0,0,1,1072.08,439.443Zm3.98-.03a8.85,8.85,0,0,0,17.7,0m67.38,0.03a20.1,20.1,0,1,0,20.07-20.032A19.875,19.875,0,0,0,1161.14,439.443Zm7.27,0a12.831,12.831,0,1,1,12.8,12.708A12.884,12.884,0,0,1,1168.41,439.443Zm3.98-.03a8.845,8.845,0,0,0,17.69,0m67.38,0.03a20.1,20.1,0,1,0,20.07-20.033A19.875,19.875,0,0,0,1257.46,439.444Zm7.27,0a12.836,12.836,0,1,1,12.8,12.708A12.885,12.885,0,0,1,1264.73,439.444Zm3.98-.03a8.85,8.85,0,0,0,17.7,0m67.38,0.031a20.1,20.1,0,1,0,20.07-20.033A19.875,19.875,0,0,0,1353.79,439.445Zm7.26,0a12.836,12.836,0,1,1,12.81,12.708A12.887,12.887,0,0,1,1361.05,439.445Zm3.99-.03a8.845,8.845,0,0,0,17.69,0M6.006,590.36A19.876,19.876,0,0,0,26.08,610.282a19.978,19.978,0,1,0,0-39.954A19.969,19.969,0,0,0,6.006,590.36Zm7.269,0a12.833,12.833,0,1,1,12.8,12.708A12.885,12.885,0,0,1,13.276,590.36Zm3.983-.03a8.846,8.846,0,0,0,17.692,0m67.38,0.031A20.1,20.1,0,1,0,122.4,570.328,19.876,19.876,0,0,0,102.331,590.361Zm7.269,0a12.833,12.833,0,1,1,12.8,12.708A12.885,12.885,0,0,1,109.6,590.361Zm3.983-.03a8.846,8.846,0,0,0,17.692,0m67.38,0.031a20.1,20.1,0,1,0,20.073-20.033A19.877,19.877,0,0,0,198.655,590.362Zm7.269,0a12.833,12.833,0,1,1,12.805,12.708A12.885,12.885,0,0,1,205.924,590.362Zm3.983-.03a8.846,8.846,0,0,0,17.692,0m67.38,0.03a20.1,20.1,0,1,0,20.073-20.032A19.876,19.876,0,0,0,294.979,590.362Zm7.269,0a12.833,12.833,0,1,1,12.805,12.708A12.885,12.885,0,0,1,302.248,590.362Zm3.983-.03a8.846,8.846,0,0,0,17.692,0m67.38,0.03a20.1,20.1,0,1,0,20.074-20.033A19.876,19.876,0,0,0,391.3,590.363Zm7.269,0a12.833,12.833,0,1,1,12.805,12.708A12.885,12.885,0,0,1,398.572,590.363Zm3.983-.03a8.847,8.847,0,0,0,17.693,0m67.379,0.031A20.1,20.1,0,1,0,507.7,570.331,19.877,19.877,0,0,0,487.627,590.364Zm7.269,0A12.833,12.833,0,1,1,507.7,603.072,12.885,12.885,0,0,1,494.9,590.364Zm3.983-.03a8.847,8.847,0,0,0,17.693,0m163.7,0.031a20.1,20.1,0,1,0,20.073-20.032A19.875,19.875,0,0,0,680.276,590.365Zm7.269,0a12.833,12.833,0,1,1,12.8,12.708A12.884,12.884,0,0,1,687.545,590.365Zm3.983-.03a8.846,8.846,0,0,0,17.692,0m-125.269.029a20.1,20.1,0,1,0,20.074-20.032A19.876,19.876,0,0,0,583.951,590.364Zm7.269,0a12.834,12.834,0,1,1,12.8,12.707A12.886,12.886,0,0,1,591.22,590.365Zm3.983-.03a8.847,8.847,0,0,0,17.693,0m162.945,0.031a20.1,20.1,0,1,0,20.074-20.033A19.877,19.877,0,0,0,775.841,590.366Zm7.269,0a12.833,12.833,0,1,1,12.8,12.708A12.886,12.886,0,0,1,783.11,590.366Zm3.983-.03a8.847,8.847,0,0,0,17.693,0m67.379,0.031a20.1,20.1,0,1,0,20.074-20.033A19.877,19.877,0,0,0,872.165,590.367Zm7.27,0a12.833,12.833,0,1,1,12.8,12.707A12.885,12.885,0,0,1,879.435,590.367Zm3.982-.03a8.847,8.847,0,0,0,17.693,0m67.38,0.03a20.1,20.1,0,1,0,20.073-20.032A19.875,19.875,0,0,0,968.49,590.367Zm7.269,0a12.831,12.831,0,1,1,12.8,12.708A12.884,12.884,0,0,1,975.759,590.367Zm3.983-.03a8.846,8.846,0,0,0,17.692,0m67.376,0.031a20.105,20.105,0,1,0,20.08-20.033A19.878,19.878,0,0,0,1064.81,590.368Zm7.27,0a12.836,12.836,0,1,1,12.81,12.708A12.887,12.887,0,0,1,1072.08,590.368Zm3.99-.03a8.845,8.845,0,0,0,17.69,0m67.38,0.031a20.1,20.1,0,1,0,20.07-20.033A19.875,19.875,0,0,0,1161.14,590.369Zm7.27,0a12.831,12.831,0,1,1,12.8,12.708A12.885,12.885,0,0,1,1168.41,590.369Zm3.98-.03a8.845,8.845,0,0,0,17.69,0m67.38,0.03a20.105,20.105,0,1,0,20.08-20.032A19.877,19.877,0,0,0,1257.46,590.369Zm7.27,0a12.836,12.836,0,1,1,12.81,12.708A12.886,12.886,0,0,1,1264.73,590.369Zm3.98-.03a8.85,8.85,0,0,0,17.7,0m67.38,0.03a20.1,20.1,0,1,0,20.07-20.033A19.875,19.875,0,0,0,1353.79,590.37Zm7.27,0a12.831,12.831,0,1,1,12.8,12.708A12.879,12.879,0,0,1,1361.06,590.37Zm3.98-.03a8.845,8.845,0,0,0,17.69,0M6.007,668.042a19.876,19.876,0,0,0,20.074,19.922,19.978,19.978,0,1,0,0-39.954A19.969,19.969,0,0,0,6.007,668.042Zm7.269,0a12.833,12.833,0,1,1,12.8,12.707A12.885,12.885,0,0,1,13.276,668.043Zm3.983-.03a8.846,8.846,0,0,0,17.693,0m67.38,0.03a20.1,20.1,0,1,0,20.074-20.032A19.876,19.876,0,0,0,102.331,668.043Zm7.269,0a12.833,12.833,0,1,1,12.805,12.708A12.884,12.884,0,0,1,109.6,668.043Zm3.983-.03a8.847,8.847,0,0,0,17.693,0m67.379,0.031a20.1,20.1,0,1,0,20.074-20.033A19.877,19.877,0,0,0,198.655,668.044Zm7.269,0a12.834,12.834,0,1,1,12.805,12.708A12.886,12.886,0,0,1,205.924,668.044Zm3.983-.03a8.847,8.847,0,0,0,17.693,0m67.38,0.03a20.1,20.1,0,1,0,20.073-20.032A19.875,19.875,0,0,0,294.98,668.044Zm7.269,0a12.833,12.833,0,1,1,12.8,12.707A12.885,12.885,0,0,1,302.249,668.045Zm3.982-.03a8.847,8.847,0,0,0,17.693,0m67.38,0.03a20.1,20.1,0,1,0,20.073-20.032A19.875,19.875,0,0,0,391.3,668.045Zm7.269,0a12.833,12.833,0,1,1,12.8,12.708A12.884,12.884,0,0,1,398.573,668.045Zm3.983-.03a8.846,8.846,0,0,0,17.692,0m67.38,0.031A20.1,20.1,0,1,0,507.7,648.013,19.877,19.877,0,0,0,487.628,668.046Zm7.269,0A12.833,12.833,0,1,1,507.7,680.754,12.885,12.885,0,0,1,494.9,668.046Zm3.983-.03a8.846,8.846,0,0,0,17.692,0m163.7,0.031a20.1,20.1,0,1,0,20.074-20.032A19.876,19.876,0,0,0,680.276,668.047Zm7.269,0a12.833,12.833,0,1,1,12.805,12.708A12.885,12.885,0,0,1,687.545,668.047Zm3.983-.03a8.847,8.847,0,0,0,17.693,0m-125.269.029a20.1,20.1,0,1,0,20.073-20.033A19.878,19.878,0,0,0,583.952,668.047Zm7.269,0a12.833,12.833,0,1,1,12.8,12.707A12.885,12.885,0,0,1,591.221,668.047Zm3.983-.03a8.846,8.846,0,0,0,17.692,0m162.946,0.031a20.1,20.1,0,1,0,20.073-20.033A19.877,19.877,0,0,0,775.842,668.048Zm7.269,0a12.833,12.833,0,1,1,12.805,12.708A12.885,12.885,0,0,1,783.111,668.048Zm3.983-.03a8.846,8.846,0,0,0,17.692,0m67.38,0.031a20.1,20.1,0,1,0,20.074-20.033A19.877,19.877,0,0,0,872.166,668.049Zm7.269,0a12.833,12.833,0,1,1,12.805,12.708A12.885,12.885,0,0,1,879.435,668.049Zm3.983-.03a8.847,8.847,0,0,0,17.693,0m67.379,0.03a20.1,20.1,0,1,0,20.074-20.032A19.876,19.876,0,0,0,968.49,668.049Zm7.269,0a12.831,12.831,0,1,1,12.8,12.708A12.885,12.885,0,0,1,975.759,668.049Zm3.983-.03a8.847,8.847,0,0,0,17.693,0m67.375,0.03a20.105,20.105,0,1,0,20.08-20.032A19.883,19.883,0,0,0,1064.81,668.05Zm7.27,0a12.836,12.836,0,1,1,12.81,12.708A12.887,12.887,0,0,1,1072.08,668.05Zm3.99-.03a8.845,8.845,0,0,0,17.69,0m67.38,0.031a20.1,20.1,0,1,0,20.07-20.033A19.875,19.875,0,0,0,1161.14,668.051Zm7.27,0a12.831,12.831,0,1,1,12.8,12.708A12.885,12.885,0,0,1,1168.41,668.051Zm3.98-.03a8.845,8.845,0,0,0,17.69,0m67.38,0.031a20.105,20.105,0,1,0,20.08-20.033A19.877,19.877,0,0,0,1257.46,668.052Zm7.27,0a12.836,12.836,0,1,1,12.81,12.707A12.887,12.887,0,0,1,1264.73,668.052Zm3.98-.03a8.85,8.85,0,0,0,17.7,0m67.38,0.03a20.1,20.1,0,1,0,20.07-20.032A19.875,19.875,0,0,0,1353.79,668.052Zm7.27,0a12.831,12.831,0,1,1,12.8,12.708A12.884,12.884,0,0,1,1361.06,668.052Zm3.98-.03a8.845,8.845,0,0,0,17.69,0M6.008,745.725a19.876,19.876,0,0,0,20.074,19.921,19.978,19.978,0,1,0,0-39.954A19.969,19.969,0,0,0,6.008,745.725Zm7.269,0a12.833,12.833,0,1,1,12.8,12.707A12.885,12.885,0,0,1,13.277,745.725Zm3.983-.03a8.846,8.846,0,0,0,17.693,0m67.38,0.03a20.1,20.1,0,1,0,20.073-20.032A19.876,19.876,0,0,0,102.332,745.725Zm7.269,0a12.833,12.833,0,1,1,12.8,12.708A12.884,12.884,0,0,1,109.6,745.725Zm3.983-.03a8.846,8.846,0,0,0,17.692,0m67.38,0.031a20.1,20.1,0,1,0,20.073-20.033A19.877,19.877,0,0,0,198.656,745.726Zm7.269,0a12.833,12.833,0,1,1,12.8,12.708A12.885,12.885,0,0,1,205.925,745.726Zm3.983-.03a8.846,8.846,0,0,0,17.692,0m67.38,0.031a20.1,20.1,0,1,0,20.074-20.033A19.878,19.878,0,0,0,294.98,745.727Zm7.269,0a12.833,12.833,0,1,1,12.8,12.708A12.885,12.885,0,0,1,302.249,745.727Zm3.983-.03a8.847,8.847,0,0,0,17.693,0m67.379,0.03A20.1,20.1,0,1,0,411.378,725.7,19.876,19.876,0,0,0,391.3,745.727Zm7.269,0a12.833,12.833,0,1,1,12.805,12.708A12.885,12.885,0,0,1,398.573,745.727Zm3.983-.03a8.847,8.847,0,0,0,17.693,0m67.379,0.03A20.1,20.1,0,1,0,507.7,725.7,19.877,19.877,0,0,0,487.628,745.728Zm7.269,0A12.834,12.834,0,1,1,507.7,758.436,12.885,12.885,0,0,1,494.9,745.728Zm3.983-.03a8.847,8.847,0,0,0,17.693,0m163.7,0.031A20.1,20.1,0,1,0,700.35,725.7,19.875,19.875,0,0,0,680.277,745.729Zm7.269,0a12.833,12.833,0,1,1,12.8,12.707A12.885,12.885,0,0,1,687.546,745.73Zm3.983-.03a8.846,8.846,0,0,0,17.692,0m-125.268.029A20.1,20.1,0,1,0,604.026,725.7,19.876,19.876,0,0,0,583.953,745.729Zm7.269,0a12.833,12.833,0,1,1,12.8,12.708A12.885,12.885,0,0,1,591.222,745.729Zm3.982-.03a8.847,8.847,0,0,0,17.693,0m162.945,0.031A20.1,20.1,0,1,0,795.916,725.7,19.877,19.877,0,0,0,775.842,745.73Zm7.269,0a12.834,12.834,0,1,1,12.805,12.708A12.885,12.885,0,0,1,783.111,745.73Zm3.983-.03a8.847,8.847,0,0,0,17.693,0m67.38,0.031A20.1,20.1,0,1,0,892.24,725.7,19.876,19.876,0,0,0,872.167,745.731Zm7.269,0a12.833,12.833,0,1,1,12.8,12.708A12.885,12.885,0,0,1,879.436,745.731Zm3.983-.03a8.846,8.846,0,0,0,17.692,0m67.38,0.031A20.1,20.1,0,1,0,988.564,725.7,19.875,19.875,0,0,0,968.491,745.732Zm7.269,0a12.831,12.831,0,1,1,12.8,12.707A12.885,12.885,0,0,1,975.76,745.732Zm3.983-.03a8.846,8.846,0,0,0,17.692,0m67.375,0.03a20.105,20.105,0,1,0,20.08-20.032A19.89,19.89,0,0,0,1064.81,745.732Zm7.27,0a12.836,12.836,0,1,1,12.81,12.708A12.886,12.886,0,0,1,1072.08,745.732Zm3.99-.03a8.845,8.845,0,0,0,17.69,0m67.38,0.031a20.1,20.1,0,1,0,20.07-20.033A19.875,19.875,0,0,0,1161.14,745.733Zm7.27,0a12.831,12.831,0,1,1,12.8,12.708A12.885,12.885,0,0,1,1168.41,745.733Zm3.98-.03a8.845,8.845,0,0,0,17.69,0m67.38,0.031a20.105,20.105,0,1,0,20.08-20.033A19.878,19.878,0,0,0,1257.46,745.734Zm7.27,0a12.836,12.836,0,1,1,12.81,12.708A12.887,12.887,0,0,1,1264.73,745.734Zm3.99-.03a8.845,8.845,0,0,0,17.69,0m67.38,0.03a20.1,20.1,0,1,0,20.07-20.032A19.875,19.875,0,0,0,1353.79,745.734Zm7.27,0a12.831,12.831,0,1,1,12.8,12.708A12.884,12.884,0,0,1,1361.06,745.734Zm3.98-.03a8.845,8.845,0,0,0,17.69,0M6.008,823.407a19.877,19.877,0,0,0,20.074,19.922,19.978,19.978,0,1,0,0-39.955A19.969,19.969,0,0,0,6.008,823.407Zm7.269,0a12.833,12.833,0,1,1,12.8,12.708A12.885,12.885,0,0,1,13.277,823.407Zm3.983-.03a8.846,8.846,0,0,0,17.693,0m67.379,0.03a20.1,20.1,0,1,0,20.074-20.032A19.876,19.876,0,0,0,102.332,823.407Zm7.269,0a12.834,12.834,0,1,1,12.805,12.708A12.885,12.885,0,0,1,109.6,823.407Zm3.983-.03a8.847,8.847,0,0,0,17.693,0m67.38,0.03a20.1,20.1,0,1,0,20.073-20.032A19.875,19.875,0,0,0,198.657,823.408Zm7.269,0a12.833,12.833,0,1,1,12.8,12.708A12.883,12.883,0,0,1,205.926,823.408Zm3.982-.03a8.847,8.847,0,0,0,17.693,0m67.38,0.031a20.1,20.1,0,1,0,20.073-20.033A19.876,19.876,0,0,0,294.981,823.409Zm7.269,0a12.833,12.833,0,1,1,12.8,12.708A12.885,12.885,0,0,1,302.25,823.409Zm3.983-.03a8.846,8.846,0,0,0,17.692,0m67.38,0.031a20.1,20.1,0,1,0,20.073-20.033A19.876,19.876,0,0,0,391.305,823.41Zm7.269,0a12.833,12.833,0,1,1,12.805,12.707A12.885,12.885,0,0,1,398.574,823.41Zm3.983-.03a8.846,8.846,0,0,0,17.692,0m67.38,0.03A20.1,20.1,0,1,0,507.7,803.378,19.876,19.876,0,0,0,487.629,823.41Zm7.269,0a12.833,12.833,0,1,1,12.8,12.708A12.884,12.884,0,0,1,494.9,823.41Zm3.983-.03a8.846,8.846,0,0,0,17.692,0m163.7,0.032a20.1,20.1,0,1,0,20.074-20.033A19.878,19.878,0,0,0,680.277,823.412Zm7.269,0a12.833,12.833,0,1,1,12.8,12.708A12.886,12.886,0,0,1,687.546,823.412Zm3.983-.03a8.847,8.847,0,0,0,17.693,0m-125.269.029a20.1,20.1,0,1,0,20.074-20.033A19.877,19.877,0,0,0,583.953,823.411Zm7.269,0a12.833,12.833,0,1,1,12.805,12.708A12.885,12.885,0,0,1,591.222,823.411Zm3.983-.03a8.847,8.847,0,0,0,17.693,0m162.945,0.031a20.1,20.1,0,1,0,20.073-20.032A19.876,19.876,0,0,0,775.843,823.412Zm7.269,0a12.833,12.833,0,1,1,12.805,12.708A12.885,12.885,0,0,1,783.112,823.412Zm3.983-.03a8.846,8.846,0,0,0,17.692,0m67.38,0.03a20.1,20.1,0,1,0,20.074-20.033A19.876,19.876,0,0,0,872.167,823.413Zm7.269,0a12.833,12.833,0,1,1,12.8,12.708A12.885,12.885,0,0,1,879.436,823.413Zm3.983-.03a8.847,8.847,0,0,0,17.693,0m67.379,0.031a20.1,20.1,0,1,0,20.074-20.033A19.877,19.877,0,0,0,968.491,823.414Zm7.269,0a12.836,12.836,0,1,1,12.805,12.708A12.886,12.886,0,0,1,975.76,823.414Zm3.983-.03a8.847,8.847,0,0,0,17.693,0m67.384,0.03a20.1,20.1,0,1,0,20.07-20.032A19.875,19.875,0,0,0,1064.82,823.414Zm7.26,0a12.836,12.836,0,1,1,12.81,12.708A12.886,12.886,0,0,1,1072.08,823.414Zm3.99-.029a8.845,8.845,0,0,0,17.69,0m67.38,0.03a20.1,20.1,0,1,0,20.07-20.032A19.875,19.875,0,0,0,1161.14,823.415Zm7.27,0a12.831,12.831,0,1,1,12.8,12.708A12.884,12.884,0,0,1,1168.41,823.415Zm3.98-.03a8.845,8.845,0,0,0,17.69,0m67.38,0.031a20.105,20.105,0,1,0,20.08-20.033A19.878,19.878,0,0,0,1257.46,823.416Zm7.27,0a12.836,12.836,0,1,1,12.81,12.708A12.887,12.887,0,0,1,1264.73,823.416Zm3.99-.03a8.845,8.845,0,0,0,17.69,0m67.38,0.031a20.1,20.1,0,1,0,20.07-20.033A19.875,19.875,0,0,0,1353.79,823.417Zm7.27,0a12.831,12.831,0,1,1,12.8,12.707A12.885,12.885,0,0,1,1361.06,823.417Zm3.98-.03a8.845,8.845,0,0,0,17.69,0M6.006,512.678A19.876,19.876,0,0,0,26.08,532.6a19.978,19.978,0,1,0,0-39.954A19.968,19.968,0,0,0,6.006,512.678Zm7.269,0a12.833,12.833,0,1,1,12.8,12.708A12.886,12.886,0,0,1,13.275,512.678Zm3.983-.03a8.846,8.846,0,0,0,17.693,0m67.38,0.031A20.1,20.1,0,1,0,122.4,492.646,19.877,19.877,0,0,0,102.33,512.679Zm7.269,0a12.833,12.833,0,1,1,12.8,12.708A12.885,12.885,0,0,1,109.6,512.679Zm3.983-.03a8.847,8.847,0,0,0,17.693,0m67.379,0.031a20.1,20.1,0,1,0,20.074-20.033A19.876,19.876,0,0,0,198.654,512.68Zm7.269,0a12.833,12.833,0,1,1,12.805,12.707A12.885,12.885,0,0,1,205.923,512.68Zm3.983-.03a8.847,8.847,0,0,0,17.693,0m67.379,0.03a20.1,20.1,0,1,0,20.074-20.032A19.876,19.876,0,0,0,294.978,512.68Zm7.269,0a12.834,12.834,0,1,1,12.805,12.708A12.885,12.885,0,0,1,302.247,512.68Zm3.983-.03a8.847,8.847,0,0,0,17.693,0m67.38,0.031a20.1,20.1,0,1,0,20.073-20.033A19.876,19.876,0,0,0,391.3,512.681Zm7.269,0a12.833,12.833,0,1,1,12.8,12.708A12.885,12.885,0,0,1,398.572,512.681Zm3.983-.03a8.846,8.846,0,0,0,17.692,0m67.38,0.031A20.1,20.1,0,1,0,507.7,492.649,19.877,19.877,0,0,0,487.627,512.682Zm7.269,0a12.833,12.833,0,1,1,12.8,12.708A12.885,12.885,0,0,1,494.9,512.682Zm3.983-.03a8.846,8.846,0,0,0,17.692,0m163.7,0.031a20.1,20.1,0,1,0,20.074-20.033A19.877,19.877,0,0,0,680.275,512.683Zm7.269,0a12.833,12.833,0,1,1,12.805,12.708A12.885,12.885,0,0,1,687.544,512.683Zm3.983-.03a8.847,8.847,0,0,0,17.693,0m-125.269.029a20.1,20.1,0,1,0,20.073-20.032A19.876,19.876,0,0,0,583.951,512.682Zm7.269,0a12.833,12.833,0,1,1,12.8,12.708A12.884,12.884,0,0,1,591.22,512.682Zm3.983-.03a8.846,8.846,0,0,0,17.692,0m162.946,0.032a20.1,20.1,0,1,0,20.073-20.033A19.876,19.876,0,0,0,775.841,512.684Zm7.269,0a12.833,12.833,0,1,1,12.8,12.708A12.885,12.885,0,0,1,783.11,512.684Zm3.983-.03a8.846,8.846,0,0,0,17.692,0m67.38,0.03a20.1,20.1,0,1,0,20.073-20.032A19.876,19.876,0,0,0,872.165,512.684Zm7.269,0a12.833,12.833,0,1,1,12.805,12.708A12.884,12.884,0,0,1,879.434,512.684Zm3.983-.03a8.846,8.846,0,0,0,17.692,0m67.38,0.03a20.1,20.1,0,1,0,20.074-20.033A19.876,19.876,0,0,0,968.489,512.685Zm7.269,0a12.832,12.832,0,1,1,12.8,12.708A12.884,12.884,0,0,1,975.758,512.685Zm3.983-.03a8.847,8.847,0,0,0,17.693,0m67.376,0.031a20.105,20.105,0,1,0,20.08-20.033A19.878,19.878,0,0,0,1064.81,512.686Zm7.27,0a12.836,12.836,0,1,1,12.81,12.708A12.887,12.887,0,0,1,1072.08,512.686Zm3.99-.03a8.845,8.845,0,0,0,17.69,0m67.38,0.031a20.1,20.1,0,1,0,20.07-20.033A19.875,19.875,0,0,0,1161.14,512.687Zm7.27,0a12.831,12.831,0,1,1,12.8,12.707A12.885,12.885,0,0,1,1168.41,512.687Zm3.98-.03a8.845,8.845,0,0,0,17.69,0m67.38,0.03a20.1,20.1,0,1,0,20.08-20.032A19.877,19.877,0,0,0,1257.46,512.687Zm7.27,0a12.836,12.836,0,1,1,12.81,12.708A12.886,12.886,0,0,1,1264.73,512.687Zm3.98-.03a8.85,8.85,0,0,0,17.7,0m67.38,0.031a20.1,20.1,0,1,0,20.07-20.033A19.875,19.875,0,0,0,1353.79,512.688Zm7.26,0a12.836,12.836,0,1,1,12.81,12.708A12.887,12.887,0,0,1,1361.05,512.688Zm3.99-.03a8.845,8.845,0,0,0,17.69,0M6.009,900.349a19.877,19.877,0,0,0,20.074,19.922,19.978,19.978,0,1,0,0-39.955A19.97,19.97,0,0,0,6.009,900.349Zm7.269,0a12.833,12.833,0,1,1,12.8,12.708A12.885,12.885,0,0,1,13.278,900.349Zm3.983-.03a8.846,8.846,0,0,0,17.693,0m67.38,0.031a20.1,20.1,0,1,0,20.073-20.033A19.877,19.877,0,0,0,102.333,900.35Zm7.269,0a12.833,12.833,0,1,1,12.8,12.708A12.885,12.885,0,0,1,109.6,900.35Zm3.983-.03a8.846,8.846,0,0,0,17.692,0m67.38,0.03a20.1,20.1,0,1,0,20.074-20.032A19.876,19.876,0,0,0,198.657,900.35Zm7.269,0a12.833,12.833,0,1,1,12.805,12.708A12.885,12.885,0,0,1,205.926,900.35Zm3.983-.03a8.847,8.847,0,0,0,17.693,0m67.379,0.03a20.1,20.1,0,1,0,20.074-20.032A19.876,19.876,0,0,0,294.981,900.351Zm7.269,0a12.833,12.833,0,1,1,12.805,12.708A12.885,12.885,0,0,1,302.25,900.351Zm3.983-.03a8.847,8.847,0,0,0,17.693,0m67.379,0.031a20.1,20.1,0,1,0,20.074-20.033A19.877,19.877,0,0,0,391.305,900.352Zm7.269,0a12.834,12.834,0,1,1,12.805,12.708A12.886,12.886,0,0,1,398.574,900.352Zm3.983-.03a8.847,8.847,0,0,0,17.693,0m67.38,0.031A20.1,20.1,0,1,0,507.7,880.32,19.875,19.875,0,0,0,487.63,900.353Zm7.269,0a12.833,12.833,0,1,1,12.8,12.707A12.885,12.885,0,0,1,494.9,900.353Zm3.982-.03a8.847,8.847,0,0,0,17.693,0m163.7,0.031a20.1,20.1,0,1,0,20.073-20.033A19.877,19.877,0,0,0,680.278,900.354Zm7.269,0a12.833,12.833,0,1,1,12.8,12.708A12.885,12.885,0,0,1,687.547,900.354Zm3.983-.03a8.846,8.846,0,0,0,17.692,0m-125.268.029a20.1,20.1,0,1,0,20.073-20.032A19.876,19.876,0,0,0,583.954,900.353Zm7.269,0a12.833,12.833,0,1,1,12.8,12.708A12.884,12.884,0,0,1,591.223,900.353Zm3.983-.03a8.846,8.846,0,0,0,17.692,0m162.946,0.032a20.1,20.1,0,1,0,20.073-20.033A19.877,19.877,0,0,0,775.844,900.355Zm7.269,0a12.833,12.833,0,1,1,12.8,12.708A12.885,12.885,0,0,1,783.113,900.355Zm3.983-.03a8.846,8.846,0,0,0,17.692,0m67.38,0.03a20.1,20.1,0,1,0,20.073-20.032A19.875,19.875,0,0,0,872.168,900.355Zm7.269,0a12.833,12.833,0,1,1,12.8,12.708A12.884,12.884,0,0,1,879.437,900.355Zm3.983-.03a8.846,8.846,0,0,0,17.692,0m67.38,0.03a20.1,20.1,0,1,0,20.073-20.033A19.876,19.876,0,0,0,968.492,900.356Zm7.269,0a12.835,12.835,0,1,1,12.805,12.708A12.885,12.885,0,0,1,975.761,900.356Zm3.983-.03a8.846,8.846,0,0,0,17.692,0m67.384,0.031a20.1,20.1,0,1,0,20.07-20.033A19.875,19.875,0,0,0,1064.82,900.357Zm7.27,0a12.831,12.831,0,1,1,12.8,12.708A12.879,12.879,0,0,1,1072.09,900.357Zm3.98-.03a8.845,8.845,0,0,0,17.69,0m67.38,0.03a20.1,20.1,0,1,0,20.07-20.032A19.875,19.875,0,0,0,1161.14,900.357Zm7.27,0a12.831,12.831,0,1,1,12.8,12.707A12.884,12.884,0,0,1,1168.41,900.358Zm3.98-.03a8.845,8.845,0,0,0,17.69,0m67.38,0.03a20.105,20.105,0,1,0,20.08-20.032A19.883,19.883,0,0,0,1257.46,900.358Zm7.27,0a12.836,12.836,0,1,1,12.81,12.708A12.886,12.886,0,0,1,1264.73,900.358Zm3.99-.03a8.845,8.845,0,0,0,17.69,0m67.38,0.031a20.1,20.1,0,1,0,20.07-20.033A19.875,19.875,0,0,0,1353.79,900.359Zm7.27,0a12.831,12.831,0,1,1,12.8,12.708A12.885,12.885,0,0,1,1361.06,900.359Zm3.98-.03a8.845,8.845,0,0,0,17.69,0M6.009,978.031a19.876,19.876,0,0,0,20.074,19.922,19.978,19.978,0,1,0,0-39.954A19.969,19.969,0,0,0,6.009,978.031Zm7.269,0a12.833,12.833,0,1,1,12.8,12.708A12.884,12.884,0,0,1,13.278,978.031Zm3.983-.03a8.846,8.846,0,0,0,17.693,0m67.38,0.031A20.1,20.1,0,1,0,122.407,958,19.876,19.876,0,0,0,102.334,978.032Zm7.268,0a12.834,12.834,0,1,1,12.8,12.708A12.886,12.886,0,0,1,109.6,978.032Zm3.983-.03a8.847,8.847,0,0,0,17.693,0m67.38,0.031A20.1,20.1,0,1,0,218.731,958,19.877,19.877,0,0,0,198.658,978.033Zm7.269,0a12.833,12.833,0,1,1,12.8,12.708A12.885,12.885,0,0,1,205.927,978.033Zm3.983-.03a8.846,8.846,0,0,0,17.692,0m67.38,0.03A20.1,20.1,0,1,0,315.055,958,19.876,19.876,0,0,0,294.982,978.033Zm7.269,0a12.833,12.833,0,1,1,12.805,12.708A12.884,12.884,0,0,1,302.251,978.033Zm3.983-.03a8.846,8.846,0,0,0,17.692,0m67.38,0.031A20.1,20.1,0,1,0,411.379,958,19.877,19.877,0,0,0,391.306,978.034Zm7.269,0a12.833,12.833,0,1,1,12.805,12.708A12.885,12.885,0,0,1,398.575,978.034Zm3.983-.03a8.846,8.846,0,0,0,17.692,0m67.38,0.031A20.1,20.1,0,1,0,507.7,958,19.877,19.877,0,0,0,487.63,978.035Zm7.269,0A12.833,12.833,0,1,1,507.7,990.743,12.885,12.885,0,0,1,494.9,978.035Zm3.983-.03a8.847,8.847,0,0,0,17.693,0m163.7,0.031A20.1,20.1,0,1,0,700.352,958,19.876,19.876,0,0,0,680.278,978.036Zm7.269,0a12.834,12.834,0,1,1,12.8,12.708A12.885,12.885,0,0,1,687.547,978.036Zm3.983-.03a8.847,8.847,0,0,0,17.693,0m-125.269.029A20.1,20.1,0,1,0,604.028,958,19.876,19.876,0,0,0,583.954,978.035Zm7.269,0a12.833,12.833,0,1,1,12.805,12.708A12.885,12.885,0,0,1,591.223,978.035Zm3.983-.03a8.847,8.847,0,0,0,17.693,0m162.945,0.031A20.1,20.1,0,1,0,795.918,958,19.877,19.877,0,0,0,775.844,978.037Zm7.269,0a12.833,12.833,0,1,1,12.8,12.708A12.885,12.885,0,0,1,783.113,978.037Zm3.983-.03a8.847,8.847,0,0,0,17.693,0m67.379,0.031a20.1,20.1,0,1,0,20.074-20.033A19.876,19.876,0,0,0,872.168,978.038Zm7.269,0a12.833,12.833,0,1,1,12.8,12.707A12.885,12.885,0,0,1,879.437,978.038Zm3.983-.03a8.847,8.847,0,0,0,17.693,0m67.379,0.03a20.1,20.1,0,1,0,20.074-20.032A19.877,19.877,0,0,0,968.492,978.038Zm7.269,0a12.835,12.835,0,1,1,12.805,12.708A12.885,12.885,0,0,1,975.761,978.038Zm3.983-.03a8.847,8.847,0,0,0,17.693,0m67.383,0.031a20.1,20.1,0,1,0,20.07-20.033A19.875,19.875,0,0,0,1064.82,978.039Zm7.27,0a12.831,12.831,0,1,1,12.8,12.708A12.879,12.879,0,0,1,1072.09,978.039Zm3.98-.03a8.845,8.845,0,0,0,17.69,0m67.38,0.031a20.1,20.1,0,1,0,20.07-20.033A19.875,19.875,0,0,0,1161.14,978.04Zm7.27,0a12.831,12.831,0,1,1,12.8,12.708A12.885,12.885,0,0,1,1168.41,978.04Zm3.98-.03a8.85,8.85,0,0,0,17.7,0m67.38,0.03a20.1,20.1,0,1,0,20.07-20.032A19.875,19.875,0,0,0,1257.47,978.04Zm7.26,0a12.836,12.836,0,1,1,12.81,12.708A12.886,12.886,0,0,1,1264.73,978.04Zm3.99-.03a8.845,8.845,0,0,0,17.69,0m67.38,0.031a20.1,20.1,0,1,0,20.07-20.033A19.875,19.875,0,0,0,1353.79,978.041Zm7.27,0a12.831,12.831,0,1,1,12.8,12.708A12.885,12.885,0,0,1,1361.06,978.041Zm3.98-.03a8.845,8.845,0,0,0,17.69,0M6.01,1055.71a19.882,19.882,0,0,0,20.074,19.93,19.981,19.981,0,1,0,0-39.96A19.966,19.966,0,0,0,6.01,1055.71Zm7.269,0a12.833,12.833,0,1,1,12.8,12.71A12.888,12.888,0,0,1,13.279,1055.71Zm3.983-.03a8.846,8.846,0,0,0,17.693,0m67.38,0.03a20.1,20.1,0,1,0,20.073-20.03A19.882,19.882,0,0,0,102.334,1055.71Zm7.269,0a12.833,12.833,0,1,1,12.805,12.71A12.879,12.879,0,0,1,109.6,1055.71Zm3.983-.03a8.846,8.846,0,0,0,17.692,0m67.38,0.03a20.1,20.1,0,1,0,20.074-20.03A19.882,19.882,0,0,0,198.658,1055.71Zm7.269,0a12.833,12.833,0,1,1,12.805,12.71A12.879,12.879,0,0,1,205.927,1055.71Zm3.983-.03a8.847,8.847,0,0,0,17.693,0m67.379,0.04a20.1,20.1,0,1,0,20.074-20.04A19.88,19.88,0,0,0,294.982,1055.72Zm7.269,0a12.833,12.833,0,1,1,12.805,12.7A12.882,12.882,0,0,1,302.251,1055.72Zm3.983-.03a8.847,8.847,0,0,0,17.693,0m67.38,0.03a20.1,20.1,0,1,0,20.073-20.04A19.879,19.879,0,0,0,391.307,1055.72Zm7.269,0a12.833,12.833,0,1,1,12.8,12.7A12.881,12.881,0,0,1,398.576,1055.72Zm3.982-.03a8.847,8.847,0,0,0,17.693,0m67.38,0.03a20.1,20.1,0,1,0,20.073-20.04A19.873,19.873,0,0,0,487.631,1055.72Zm7.269,0a12.833,12.833,0,1,1,12.8,12.7A12.881,12.881,0,0,1,494.9,1055.72Zm3.983-.03a8.846,8.846,0,0,0,17.692,0m163.7,0.03a20.1,20.1,0,1,0,20.073-20.03A19.874,19.874,0,0,0,680.279,1055.72Zm7.269,0a12.833,12.833,0,1,1,12.8,12.71A12.888,12.888,0,0,1,687.548,1055.72Zm3.983-.03a8.846,8.846,0,0,0,17.692,0m-125.268.03a20.1,20.1,0,1,0,20.073-20.04A19.873,19.873,0,0,0,583.955,1055.72Zm7.269,0a12.833,12.833,0,1,1,12.8,12.71A12.887,12.887,0,0,1,591.224,1055.72Zm3.983-.03a8.846,8.846,0,0,0,17.692,0m162.946,0.03a20.1,20.1,0,1,0,20.073-20.03A19.873,19.873,0,0,0,775.845,1055.72Zm7.269,0a12.833,12.833,0,1,1,12.8,12.71A12.887,12.887,0,0,1,783.114,1055.72Zm3.983-.03a8.846,8.846,0,0,0,17.692,0m67.38,0.03a20.1,20.1,0,1,0,20.073-20.03A19.874,19.874,0,0,0,872.169,1055.72Zm7.269,0a12.833,12.833,0,1,1,12.805,12.71A12.887,12.887,0,0,1,879.438,1055.72Zm3.983-.03a8.846,8.846,0,0,0,17.692,0m67.38,0.03a20.1,20.1,0,1,0,20.074-20.03A19.874,19.874,0,0,0,968.493,1055.72Zm7.269,0a12.835,12.835,0,1,1,12.805,12.71A12.888,12.888,0,0,1,975.762,1055.72Zm3.983-.03a8.847,8.847,0,0,0,17.693,0m67.382,0.03a20.1,20.1,0,1,0,20.07-20.03A19.872,19.872,0,0,0,1064.82,1055.72Zm7.27,0a12.831,12.831,0,1,1,12.8,12.71A12.887,12.887,0,0,1,1072.09,1055.72Zm3.98-.03a8.845,8.845,0,0,0,17.69,0m67.38,0.03a20.1,20.1,0,1,0,20.07-20.03A19.875,19.875,0,0,0,1161.14,1055.72Zm7.27,0a12.836,12.836,0,1,1,12.81,12.71A12.887,12.887,0,0,1,1168.41,1055.72Zm3.98-.03a8.85,8.85,0,0,0,17.7,0m67.38,0.03a20.1,20.1,0,1,0,20.07-20.03A19.872,19.872,0,0,0,1257.47,1055.72Zm7.26,0a12.836,12.836,0,1,1,12.81,12.71A12.889,12.889,0,0,1,1264.73,1055.72Zm3.99-.03a8.845,8.845,0,0,0,17.69,0m67.38,0.03a20.1,20.1,0,1,0,20.07-20.03A19.887,19.887,0,0,0,1353.79,1055.72Zm7.27,0a12.831,12.831,0,1,1,12.8,12.71A12.887,12.887,0,0,1,1361.06,1055.72Zm3.98-.03a8.845,8.845,0,0,0,17.69,0M1444,51.764a20.105,20.105,0,1,0,20.08-20.033A19.877,19.877,0,0,0,1444,51.764Zm7.27,0a12.836,12.836,0,1,1,12.81,12.708A12.887,12.887,0,0,1,1451.27,51.764Zm3.98-.03a8.85,8.85,0,0,0,17.7,0m67.38,0.03a20.1,20.1,0,1,0,20.07-20.033A19.875,19.875,0,0,0,1540.33,51.765Zm7.27,0a12.831,12.831,0,1,1,12.8,12.708A12.878,12.878,0,0,1,1547.6,51.765Zm3.98-.03a8.845,8.845,0,0,0,17.69,0m67.38,0.03a20.1,20.1,0,1,0,20.07-20.033A19.875,19.875,0,0,0,1636.65,51.765Zm7.27,0a12.836,12.836,0,1,1,12.8,12.708A12.885,12.885,0,0,1,1643.92,51.765Zm3.98-.03a8.85,8.85,0,0,0,17.7,0m67.38,0.031a20.1,20.1,0,1,0,20.07-20.033A19.875,19.875,0,0,0,1732.98,51.766Zm7.26,0a12.836,12.836,0,1,1,12.81,12.708A12.887,12.887,0,0,1,1740.24,51.766Zm3.99-.03a8.845,8.845,0,0,0,17.69,0m67.38,0.031a20.1,20.1,0,1,0,20.07-20.033A19.875,19.875,0,0,0,1829.3,51.767Zm7.27,0a12.831,12.831,0,1,1,12.8,12.708A12.885,12.885,0,0,1,1836.57,51.767Zm3.98-.03a8.845,8.845,0,0,0,17.69,0M1444,128.706a20.105,20.105,0,1,0,20.08-20.032A19.877,19.877,0,0,0,1444,128.706Zm7.27,0a12.836,12.836,0,1,1,12.81,12.708A12.886,12.886,0,0,1,1451.27,128.706Zm3.99-.03a8.845,8.845,0,0,0,17.69,0m67.38,0.03a20.1,20.1,0,1,0,20.07-20.033A19.875,19.875,0,0,0,1540.33,128.707Zm7.27,0a12.831,12.831,0,1,1,12.8,12.708A12.885,12.885,0,0,1,1547.6,128.707Zm3.98-.03a8.845,8.845,0,0,0,17.69,0m67.38,0.031a20.1,20.1,0,1,0,20.07-20.033A19.878,19.878,0,0,0,1636.65,128.708Zm7.27,0a12.836,12.836,0,1,1,12.81,12.708A12.887,12.887,0,0,1,1643.92,128.708Zm3.98-.03a8.85,8.85,0,0,0,17.7,0m67.38,0.03a20.1,20.1,0,1,0,20.07-20.032A19.875,19.875,0,0,0,1732.98,128.708Zm7.26,0a12.836,12.836,0,1,1,12.81,12.707A12.887,12.887,0,0,1,1740.24,128.709Zm3.99-.03a8.845,8.845,0,0,0,17.69,0m67.38,0.03a20.1,20.1,0,1,0,20.07-20.032A19.875,19.875,0,0,0,1829.3,128.709Zm7.27,0a12.831,12.831,0,1,1,12.8,12.708A12.884,12.884,0,0,1,1836.57,128.709Zm3.98-.03a8.845,8.845,0,0,0,17.69,0M1444,206.388a20.105,20.105,0,1,0,20.08-20.032A19.877,19.877,0,0,0,1444,206.388Zm7.27,0a12.836,12.836,0,1,1,12.81,12.707A12.887,12.887,0,0,1,1451.27,206.389Zm3.99-.03a8.845,8.845,0,0,0,17.69,0m67.38,0.03a20.1,20.1,0,1,0,20.07-20.032A19.875,19.875,0,0,0,1540.33,206.389Zm7.27,0a12.831,12.831,0,1,1,12.8,12.708A12.884,12.884,0,0,1,1547.6,206.389Zm3.98-.03a8.845,8.845,0,0,0,17.69,0m67.38,0.031a20.105,20.105,0,1,0,20.08-20.033A19.878,19.878,0,0,0,1636.65,206.39Zm7.27,0a12.836,12.836,0,1,1,12.81,12.708A12.887,12.887,0,0,1,1643.92,206.39Zm3.98-.03a8.85,8.85,0,0,0,17.7,0m67.38,0.031a20.1,20.1,0,1,0,20.07-20.033A19.875,19.875,0,0,0,1732.98,206.391Zm7.27,0a12.831,12.831,0,1,1,12.8,12.707A12.879,12.879,0,0,1,1740.25,206.391Zm3.98-.03a8.845,8.845,0,0,0,17.69,0m67.38,0.03a20.1,20.1,0,1,0,20.07-20.032A19.875,19.875,0,0,0,1829.3,206.391Zm7.27,0a12.831,12.831,0,1,1,12.8,12.708A12.884,12.884,0,0,1,1836.57,206.391Zm3.98-.03a8.845,8.845,0,0,0,17.69,0M1444,284.071a20.105,20.105,0,1,0,20.08-20.033A19.878,19.878,0,0,0,1444,284.071Zm7.27,0a12.836,12.836,0,1,1,12.81,12.708A12.887,12.887,0,0,1,1451.27,284.071Zm3.99-.03a8.845,8.845,0,0,0,17.69,0m67.38,0.03a20.1,20.1,0,1,0,20.07-20.032A19.875,19.875,0,0,0,1540.33,284.071Zm7.27,0a12.831,12.831,0,1,1,12.8,12.708A12.884,12.884,0,0,1,1547.6,284.071Zm3.98-.03a8.845,8.845,0,0,0,17.69,0m67.38,0.03a20.105,20.105,0,1,0,20.08-20.033A19.878,19.878,0,0,0,1636.65,284.072Zm7.27,0a12.836,12.836,0,1,1,12.81,12.708A12.887,12.887,0,0,1,1643.92,284.072Zm3.98-.03a8.85,8.85,0,0,0,17.7,0m67.38,0.031a20.1,20.1,0,1,0,20.07-20.033A19.875,19.875,0,0,0,1732.98,284.073Zm7.27,0a12.831,12.831,0,1,1,12.8,12.708A12.879,12.879,0,0,1,1740.25,284.073Zm3.98-.03a8.845,8.845,0,0,0,17.69,0m67.38,0.03a20.1,20.1,0,1,0,20.07-20.032A19.875,19.875,0,0,0,1829.3,284.073Zm7.27,0a12.836,12.836,0,1,1,12.8,12.708A12.884,12.884,0,0,1,1836.57,284.073Zm3.98-.03a8.85,8.85,0,0,0,17.7,0M1444,361.753a20.105,20.105,0,1,0,20.08-20.033A19.884,19.884,0,0,0,1444,361.753Zm7.27,0a12.836,12.836,0,1,1,12.81,12.708A12.887,12.887,0,0,1,1451.27,361.753Zm3.99-.03a8.845,8.845,0,0,0,17.69,0m67.38,0.03a20.1,20.1,0,1,0,20.07-20.032A19.875,19.875,0,0,0,1540.33,361.753Zm7.27,0a12.831,12.831,0,1,1,12.8,12.707A12.884,12.884,0,0,1,1547.6,361.754Zm3.98-.03a8.845,8.845,0,0,0,17.69,0m67.38,0.03a20.105,20.105,0,1,0,20.08-20.032A19.877,19.877,0,0,0,1636.65,361.754Zm7.27,0a12.836,12.836,0,1,1,12.81,12.708A12.886,12.886,0,0,1,1643.92,361.754Zm3.99-.03a8.845,8.845,0,0,0,17.69,0m67.38,0.031a20.1,20.1,0,1,0,20.07-20.033A19.875,19.875,0,0,0,1732.98,361.755Zm7.27,0a12.831,12.831,0,1,1,12.8,12.708A12.885,12.885,0,0,1,1740.25,361.755Zm3.98-.03a8.845,8.845,0,0,0,17.69,0m67.38,0.031a20.1,20.1,0,1,0,20.07-20.033A19.878,19.878,0,0,0,1829.3,361.756Zm7.27,0a12.836,12.836,0,1,1,12.81,12.708A12.885,12.885,0,0,1,1836.57,361.756Zm3.98-.03a8.85,8.85,0,0,0,17.7,0m-414.24,77.709a20.1,20.1,0,1,0,20.07-20.033A19.875,19.875,0,0,0,1444.01,439.435Zm7.26,0a12.836,12.836,0,1,1,12.81,12.708A12.887,12.887,0,0,1,1451.27,439.435Zm3.99-.03a8.845,8.845,0,0,0,17.69,0m67.38,0.031A20.1,20.1,0,1,0,1560.4,419.4,19.876,19.876,0,0,0,1540.33,439.436Zm7.27,0a12.831,12.831,0,1,1,12.8,12.708A12.885,12.885,0,0,1,1547.6,439.436Zm3.98-.03a8.845,8.845,0,0,0,17.69,0m67.38,0.03a20.105,20.105,0,1,0,20.08-20.032A19.877,19.877,0,0,0,1636.65,439.436Zm7.27,0a12.836,12.836,0,1,1,12.81,12.708A12.886,12.886,0,0,1,1643.92,439.436Zm3.99-.03a8.845,8.845,0,0,0,17.69,0m67.38,0.03a20.1,20.1,0,1,0,20.07-20.033A19.875,19.875,0,0,0,1732.98,439.437Zm7.27,0a12.831,12.831,0,1,1,12.8,12.708A12.885,12.885,0,0,1,1740.25,439.437Zm3.98-.03a8.845,8.845,0,0,0,17.69,0m67.38,0.031a20.105,20.105,0,1,0,20.08-20.033A19.878,19.878,0,0,0,1829.3,439.438Zm7.27,0a12.836,12.836,0,1,1,12.81,12.708A12.887,12.887,0,0,1,1836.57,439.438Zm3.98-.03a8.85,8.85,0,0,0,17.7,0M1444.01,590.36a20.1,20.1,0,1,0,20.07-20.032A19.875,19.875,0,0,0,1444.01,590.36Zm7.27,0a12.831,12.831,0,1,1,12.8,12.708A12.878,12.878,0,0,1,1451.28,590.36Zm3.98-.03a8.845,8.845,0,0,0,17.69,0m67.38,0.031a20.1,20.1,0,1,0,20.07-20.033A19.875,19.875,0,0,0,1540.33,590.361Zm7.27,0a12.831,12.831,0,1,1,12.8,12.708A12.885,12.885,0,0,1,1547.6,590.361Zm3.98-.03a8.85,8.85,0,0,0,17.7,0m67.37,0.031a20.105,20.105,0,1,0,20.08-20.033A19.885,19.885,0,0,0,1636.65,590.362Zm7.27,0a12.836,12.836,0,1,1,12.81,12.708A12.887,12.887,0,0,1,1643.92,590.362Zm3.99-.03a8.845,8.845,0,0,0,17.69,0m67.38,0.03a20.1,20.1,0,1,0,20.07-20.032A19.875,19.875,0,0,0,1732.98,590.362Zm7.27,0a12.831,12.831,0,1,1,12.8,12.708A12.884,12.884,0,0,1,1740.25,590.362Zm3.98-.03a8.845,8.845,0,0,0,17.69,0m67.38,0.03a20.105,20.105,0,1,0,20.08-20.033A19.877,19.877,0,0,0,1829.3,590.363Zm7.27,0a12.836,12.836,0,1,1,12.81,12.708A12.887,12.887,0,0,1,1836.57,590.363Zm3.99-.03a8.845,8.845,0,0,0,17.69,0m-414.24,77.709a20.1,20.1,0,1,0,20.07-20.032A19.875,19.875,0,0,0,1444.01,668.042Zm7.27,0a12.831,12.831,0,1,1,12.8,12.707A12.884,12.884,0,0,1,1451.28,668.043Zm3.98-.03a8.845,8.845,0,0,0,17.69,0m67.38,0.03a20.1,20.1,0,1,0,20.07-20.032A19.877,19.877,0,0,0,1540.33,668.043Zm7.27,0a12.836,12.836,0,1,1,12.8,12.708A12.884,12.884,0,0,1,1547.6,668.043Zm3.98-.03a8.85,8.85,0,0,0,17.7,0m67.38,0.031a20.1,20.1,0,1,0,20.07-20.033A19.875,19.875,0,0,0,1636.66,668.044Zm7.26,0a12.836,12.836,0,1,1,12.81,12.708A12.887,12.887,0,0,1,1643.92,668.044Zm3.99-.03a8.845,8.845,0,0,0,17.69,0m67.38,0.03a20.1,20.1,0,1,0,20.07-20.032A19.875,19.875,0,0,0,1732.98,668.044Zm7.27,0a12.831,12.831,0,1,1,12.8,12.707A12.885,12.885,0,0,1,1740.25,668.045Zm3.98-.03a8.845,8.845,0,0,0,17.69,0m67.38,0.03a20.105,20.105,0,1,0,20.08-20.032A19.877,19.877,0,0,0,1829.3,668.045Zm7.27,0a12.836,12.836,0,1,1,12.81,12.708A12.886,12.886,0,0,1,1836.57,668.045Zm3.99-.03a8.845,8.845,0,0,0,17.69,0m-414.24,77.71a20.1,20.1,0,1,0,20.07-20.033A19.875,19.875,0,0,0,1444.01,745.725Zm7.27,0a12.831,12.831,0,1,1,12.8,12.707A12.885,12.885,0,0,1,1451.28,745.725Zm3.98-.03a8.845,8.845,0,0,0,17.69,0m67.38,0.03a20.1,20.1,0,1,0,20.08-20.032A19.877,19.877,0,0,0,1540.33,745.725Zm7.27,0a12.836,12.836,0,1,1,12.81,12.708A12.886,12.886,0,0,1,1547.6,745.725Zm3.98-.03a8.85,8.85,0,0,0,17.7,0m67.38,0.031a20.1,20.1,0,1,0,20.07-20.033A19.875,19.875,0,0,0,1636.66,745.726Zm7.26,0a12.836,12.836,0,1,1,12.81,12.708A12.887,12.887,0,0,1,1643.92,745.726Zm3.99-.03a8.845,8.845,0,0,0,17.69,0m67.38,0.031a20.1,20.1,0,1,0,20.07-20.033A19.876,19.876,0,0,0,1732.98,745.727Zm7.27,0a12.831,12.831,0,1,1,12.8,12.708A12.885,12.885,0,0,1,1740.25,745.727Zm3.98-.03a8.845,8.845,0,0,0,17.69,0m67.38,0.03a20.105,20.105,0,1,0,20.08-20.032A19.877,19.877,0,0,0,1829.3,745.727Zm7.27,0a12.836,12.836,0,1,1,12.81,12.708A12.886,12.886,0,0,1,1836.57,745.727Zm3.99-.03a8.845,8.845,0,0,0,17.69,0m-414.24,77.709a20.1,20.1,0,1,0,20.07-20.033A19.875,19.875,0,0,0,1444.01,823.407Zm7.27,0a12.831,12.831,0,1,1,12.8,12.708A12.885,12.885,0,0,1,1451.28,823.407Zm3.98-.03a8.845,8.845,0,0,0,17.69,0m67.38,0.03a20.105,20.105,0,1,0,20.08-20.032A19.877,19.877,0,0,0,1540.33,823.407Zm7.27,0a12.836,12.836,0,1,1,12.81,12.708A12.886,12.886,0,0,1,1547.6,823.407Zm3.98-.03a8.85,8.85,0,0,0,17.7,0m67.38,0.03a20.1,20.1,0,1,0,20.07-20.032A19.875,19.875,0,0,0,1636.66,823.408Zm7.27,0a12.831,12.831,0,1,1,12.8,12.708A12.877,12.877,0,0,1,1643.93,823.408Zm3.98-.03a8.845,8.845,0,0,0,17.69,0m67.38,0.031a20.1,20.1,0,1,0,20.07-20.033A19.875,19.875,0,0,0,1732.98,823.409Zm7.27,0a12.831,12.831,0,1,1,12.8,12.708A12.885,12.885,0,0,1,1740.25,823.409Zm3.98-.03a8.85,8.85,0,0,0,17.7,0m67.37,0.031a20.105,20.105,0,1,0,20.08-20.033A19.883,19.883,0,0,0,1829.3,823.41Zm7.27,0a12.836,12.836,0,1,1,12.81,12.707A12.887,12.887,0,0,1,1836.57,823.41Zm3.99-.03a8.845,8.845,0,0,0,17.69,0m-414.24-310.7a20.1,20.1,0,1,0,20.07-20.032A19.875,19.875,0,0,0,1444.01,512.678Zm7.26,0a12.836,12.836,0,1,1,12.81,12.708A12.887,12.887,0,0,1,1451.27,512.678Zm3.99-.03a8.845,8.845,0,0,0,17.69,0m67.38,0.031a20.1,20.1,0,1,0,20.07-20.033A19.875,19.875,0,0,0,1540.33,512.679Zm7.27,0a12.831,12.831,0,1,1,12.8,12.708A12.885,12.885,0,0,1,1547.6,512.679Zm3.98-.03a8.845,8.845,0,0,0,17.69,0m67.38,0.031a20.105,20.105,0,1,0,20.08-20.033A19.877,19.877,0,0,0,1636.65,512.68Zm7.27,0a12.836,12.836,0,1,1,12.81,12.707A12.887,12.887,0,0,1,1643.92,512.68Zm3.99-.03a8.845,8.845,0,0,0,17.69,0m67.38,0.03a20.1,20.1,0,1,0,20.07-20.032A19.875,19.875,0,0,0,1732.98,512.68Zm7.27,0a12.831,12.831,0,1,1,12.8,12.708A12.884,12.884,0,0,1,1740.25,512.68Zm3.98-.03a8.845,8.845,0,0,0,17.69,0m67.38,0.031a20.105,20.105,0,1,0,20.08-20.033A19.878,19.878,0,0,0,1829.3,512.681Zm7.27,0a12.836,12.836,0,1,1,12.81,12.708A12.887,12.887,0,0,1,1836.57,512.681Zm3.98-.03a8.85,8.85,0,0,0,17.7,0m-414.24,387.7a20.1,20.1,0,1,0,20.07-20.033A19.875,19.875,0,0,0,1444.01,900.349Zm7.27,0a12.831,12.831,0,1,1,12.8,12.708A12.885,12.885,0,0,1,1451.28,900.349Zm3.98-.03a8.845,8.845,0,0,0,17.69,0m67.38,0.031a20.105,20.105,0,1,0,20.08-20.033A19.878,19.878,0,0,0,1540.33,900.35Zm7.27,0a12.836,12.836,0,1,1,12.81,12.708A12.887,12.887,0,0,1,1547.6,900.35Zm3.98-.03a8.85,8.85,0,0,0,17.7,0m67.38,0.03a20.1,20.1,0,1,0,20.07-20.032A19.875,19.875,0,0,0,1636.66,900.35Zm7.27,0a12.831,12.831,0,1,1,12.8,12.708A12.884,12.884,0,0,1,1643.93,900.35Zm3.98-.03a8.845,8.845,0,0,0,17.69,0m67.38,0.03a20.1,20.1,0,1,0,20.07-20.032A19.875,19.875,0,0,0,1732.98,900.351Zm7.27,0a12.836,12.836,0,1,1,12.8,12.708A12.884,12.884,0,0,1,1740.25,900.351Zm3.98-.03a8.85,8.85,0,0,0,17.7,0m67.38,0.031a20.1,20.1,0,1,0,20.07-20.033A19.875,19.875,0,0,0,1829.31,900.352Zm7.26,0a12.836,12.836,0,1,1,12.81,12.708A12.887,12.887,0,0,1,1836.57,900.352Zm3.99-.03a8.845,8.845,0,0,0,17.69,0m-414.24,77.709A20.1,20.1,0,1,0,1464.08,958,19.875,19.875,0,0,0,1444.01,978.031Zm7.27,0a12.831,12.831,0,1,1,12.8,12.708A12.884,12.884,0,0,1,1451.28,978.031Zm3.98-.03a8.845,8.845,0,0,0,17.69,0m67.38,0.031A20.105,20.105,0,1,0,1560.41,958,19.878,19.878,0,0,0,1540.33,978.032Zm7.27,0a12.836,12.836,0,1,1,12.81,12.708A12.887,12.887,0,0,1,1547.6,978.032Zm3.99-.03a8.845,8.845,0,0,0,17.69,0m67.38,0.031A20.1,20.1,0,1,0,1656.73,958,19.876,19.876,0,0,0,1636.66,978.033Zm7.27,0a12.831,12.831,0,1,1,12.8,12.708A12.885,12.885,0,0,1,1643.93,978.033Zm3.98-.03a8.845,8.845,0,0,0,17.69,0m67.38,0.03A20.1,20.1,0,1,0,1753.06,958,19.877,19.877,0,0,0,1732.98,978.033Zm7.27,0a12.836,12.836,0,1,1,12.81,12.708A12.886,12.886,0,0,1,1740.25,978.033Zm3.98-.03a8.85,8.85,0,0,0,17.7,0m67.38,0.031A20.1,20.1,0,1,0,1849.38,958,19.875,19.875,0,0,0,1829.31,978.034Zm7.26,0a12.836,12.836,0,1,1,12.81,12.708A12.887,12.887,0,0,1,1836.57,978.034Zm3.99-.03a8.845,8.845,0,0,0,17.69,0m-414.24,77.706a20.1,20.1,0,1,0,20.07-20.03A19.881,19.881,0,0,0,1444.01,1055.71Zm7.27,0a12.831,12.831,0,1,1,12.8,12.71A12.887,12.887,0,0,1,1451.28,1055.71Zm3.98-.03a8.845,8.845,0,0,0,17.69,0m67.38,0.03a20.105,20.105,0,1,0,20.08-20.03A19.883,19.883,0,0,0,1540.33,1055.71Zm7.27,0a12.836,12.836,0,1,1,12.81,12.71A12.881,12.881,0,0,1,1547.6,1055.71Zm3.99-.03a8.845,8.845,0,0,0,17.69,0m67.38,0.03a20.1,20.1,0,1,0,20.07-20.03A19.881,19.881,0,0,0,1636.66,1055.71Zm7.27,0a12.831,12.831,0,1,1,12.8,12.71A12.879,12.879,0,0,1,1643.93,1055.71Zm3.98-.03a8.845,8.845,0,0,0,17.69,0m67.38,0.04a20.105,20.105,0,1,0,20.08-20.04A19.881,19.881,0,0,0,1732.98,1055.72Zm7.27,0a12.836,12.836,0,1,1,12.81,12.7A12.883,12.883,0,0,1,1740.25,1055.72Zm3.98-.03a8.85,8.85,0,0,0,17.7,0m67.38,0.03a20.1,20.1,0,1,0,20.07-20.04A19.879,19.879,0,0,0,1829.31,1055.72Zm7.27,0a12.831,12.831,0,1,1,12.8,12.7A12.874,12.874,0,0,1,1836.58,1055.72Zm3.98-.03a8.845,8.845,0,0,0,17.69,0"/>
</svg>
