<svg id="af9e46fd-88b7-4118-ae45-415b3f4cf6e6" data-name="Layer 1" xmlns="http://www.w3.org/2000/svg" width="770.30145" height="650.85004" viewBox="0 0 770.30145 650.85004"><path d="M934.27043,694.14829s-112.306-51.70032-72.853-87.55227S934.27043,694.14829,934.27043,694.14829Z" transform="translate(-214.84928 -124.57498)" fill="#e6e6e6"/><path d="M932.31571,706.21205s-51.62-169.6065,24.39237-161.49519S932.31571,706.21205,932.31571,706.21205Z" transform="translate(-214.84928 -124.57498)" fill="#e6e6e6"/><path d="M894.679,691.17l2.16658,28.37159.03437.49006a130.35307,130.35307,0,0,0,.67063,13.26586c2.94031,28.939,15.57857,42.12751,30.349,42.12751s26.85843-13.18851,29.79875-42.12751a130.356,130.356,0,0,0,.67062-13.26586l.01721-.3955.00856-.09456L960.5699,691.17Z" transform="translate(-214.84928 -124.57498)" fill="#e6e6e6"/><path d="M958.39472,719.54159l-.00856.09456-.01721.3955a130.356,130.356,0,0,1-.67062,13.26586H897.5506a130.35307,130.35307,0,0,1-.67063-13.26586l-.03437-.49006Z" transform="translate(-214.84928 -124.57498)" fill="#fff"/><path d="M299.65949,718.83877s-41.76-19.22429-27.08972-32.55551S299.65949,718.83877,299.65949,718.83877Z" transform="translate(-214.84928 -124.57498)" fill="#e6e6e6"/><path d="M272.00407,716.80251l1.50745,19.74023.02391.341a90.69705,90.69705,0,0,0,.46661,9.23c2.0458,20.135,10.83918,29.31126,21.11606,29.31126s18.68741-9.17623,20.73321-29.31126a90.6971,90.6971,0,0,0,.4666-9.23l.012-.27518.006-.0658,1.51344-19.74023Z" transform="translate(-214.84928 -124.57498)" fill="#e6e6e6"/><path d="M738.253,430.9007l0,0a10.1878,10.1878,0,0,0-2.69545-18.08783l-23.38075-7.45712-12.84708,11.13339L727.691,431.52059A10.18778,10.18778,0,0,0,738.253,430.9007Z" transform="translate(-214.84928 -124.57498)" fill="#ffb9b9"/><path d="M698.93534,423.75854,714.349,405.88627l-57.39472-62.816-26.42595-61.26771a18.81833,18.81833,0,0,0-21.46151-10.89476h0a18.81832,18.81832,0,0,0-12.51968,27.01861l34.49078,66.43564Z" transform="translate(-214.84928 -124.57498)" fill="#e6e6e6"/><polygon points="520.909 535.935 517.955 531.35 512.5 531.35 512.5 529.35 519.045 529.35 522.591 534.851 520.909 535.935" fill="#3f3d56"/><path d="M723.51724,655.925H712.02017v-2h11.49707Zm-15.33007,0H696.6901v-2h11.49707Zm-15.32911,0H681.361v-2h11.49707Zm-15.33007,0H666.03092v-2H677.528Zm-15.32911,0H650.70181v-2h11.49707Zm-15.33007,0-10.65137-.00879-.96875-.12891.26367-1.98242.90332.12012h10.45313Zm-15.419-.64258-11.39746-1.51367.26367-1.98242L631.71353,653.3Zm-15.19629-2.01855-11.397-1.51465.26367-1.98242,11.397,1.51464Zm-15.1958-2.01954-11.397-1.51367.26367-1.98242,11.397,1.51367Zm-15.19629-2.01855-11.397-1.51465.26367-1.98242,11.397,1.51465Z" transform="translate(-214.84928 -124.57498)" fill="#3f3d56"/><polygon points="350.828 526.876 348.829 526.82 349.032 519.712 356.08 520.649 355.816 522.631 350.968 521.988 350.828 526.876" fill="#3f3d56"/><path d="M564.1481,704.99338l-1.999-.05664.38232-13.38575,1.999.05665Zm.50977-17.84766-1.999-.05664.38232-13.38574,1.999.05664Zm.50976-17.84765-1.999-.05665.38233-13.38574,1.999.05664Z" transform="translate(-214.84928 -124.57498)" fill="#3f3d56"/><polygon points="346.969 591.933 347.172 584.824 349.171 584.88 349.031 589.767 353.904 589.388 354.06 591.382 346.969 591.933" fill="#3f3d56"/><path d="M572.736,715.66037l-.15527-1.99414,11.48193-.89258.15528,1.99414Zm15.30909-1.18945-.15528-1.99414,11.48194-.89258.15527,1.99414Zm15.30908-1.18946-.15528-1.99414,11.48243-.89258.15429,1.99415Zm15.30859-1.18945-.1543-1.99414,11.48145-.89258.1543,1.99414Zm15.3086-1.18945-.1543-1.99414,11.48242-.89258.1543,1.99414Zm15.30957-1.18946-.1543-1.99414,11.48144-.89257.1543,1.99414Zm15.30859-1.18945-.1543-1.99414,11.48242-.89258.1543,1.99414Zm15.30957-1.18945-.1543-1.99414,11.48145-.89258.1543,1.99414Zm15.30859-1.18946-.15429-1.99414,11.48242-.89257.1543,1.99414Zm15.30957-1.18945-.15429-1.99414,11.48144-.89258.1543,1.99414Zm15.3086-1.18945-.1543-1.99414,11.48242-.89258.1543,1.99414Zm15.30957-1.18945-.1543-1.99415,11.48145-.89257.15429,1.99414Z" transform="translate(-214.84928 -124.57498)" fill="#3f3d56"/><polygon points="541.595 576.812 541.44 574.818 545.752 574.483 543.409 570.849 545.091 569.765 549.248 576.217 541.595 576.812" fill="#3f3d56"/><path d="M755.75845,691.54416l-7.5-11.6377,1.68165-1.084,7.5,11.63769Zm-10-15.5166-7.5-11.6377,1.68165-1.084,7.5,11.63769Z" transform="translate(-214.84928 -124.57498)" fill="#3f3d56"/><circle cx="504" cy="551.85004" r="68" fill="#9ccc34"/><polygon points="560 630.85 460.5 454.35 438.5 476.35 536.5 630.35 560 630.85" fill="#3f3d56"/><polygon points="258.5 626.35 482 399.85 500.5 436.35 288.5 636.35 258.5 626.35" fill="#3f3d56"/><circle cx="349.5" cy="557.35004" r="45" fill="#3f3d56"/><path d="M504.34928,694.925a1.001,1.001,0,0,0-1,1v8a1.001,1.001,0,0,0,1,1h25a1.001,1.001,0,0,0,1-1v-8a1.001,1.001,0,0,0-1-1Z" transform="translate(-214.84928 -124.57498)" fill="#9ccc34"/><path d="M561.84928,583.425a1.001,1.001,0,0,0-1,1v8a1.001,1.001,0,0,0,1,1h25a1.001,1.001,0,0,0,1-1v-8a1.001,1.001,0,0,0-1-1Z" transform="translate(-214.84928 -124.57498)" fill="#9ccc34"/><polygon points="468.5 442.35 442.5 442.35 442.5 422.35 452.5 418.35 468.5 430.35 468.5 442.35" fill="#3f3d56"/><rect x="660.34928" y="537.92502" width="3" height="12" transform="translate(-383.87489 210.67371) rotate(-25.31588)" fill="#3f3d56"/><path d="M663.51431,524.88058a.99073.99073,0,0,0-.53808.15918l-17.66309,11.35987a1.001,1.001,0,0,0-.2998,1.38183l4.32715,6.72852a1.00071,1.00071,0,0,0,1.38183.30029l17.66309-11.35986v.00049a1.00171,1.00171,0,0,0,.2998-1.38233l-4.32715-6.72851a.99406.99406,0,0,0-.6289-.436A1.00559,1.00559,0,0,0,663.51431,524.88058Z" transform="translate(-214.84928 -124.57498)" fill="#9ccc34"/><path d="M703.3493,564.925h0l-20.5-99.5,24-4,16.36394,80.15542A18.943,18.943,0,0,1,703.3493,564.925Z" transform="translate(-214.84928 -124.57498)" fill="#3f3d56"/><path d="M778.88078,445.82013l-23.74151-1.69583a2,2,0,0,1-1.69914-2.7749l34.48634-81.42609a2,2,0,0,1,1.49-1.18887l23.41745-4.18169a2,2,0,0,1,2.21407,2.69766L780.88576,444.554A2,2,0,0,1,778.88078,445.82013Z" transform="translate(-214.84928 -124.57498)" fill="#3f3d56"/><polygon points="543.5 313.35 562.5 315.35 593.5 237.35 573.5 240.35 543.5 313.35" fill="#9ccc34"/><polygon points="336.5 527.35 311.5 552.35 275.5 395.35 295.5 398.35 336.5 527.35" fill="#3f3d56"/><path d="M522.21516,522.68706l-4.31816-1.29545a60.41115,60.41115,0,0,1-26.97938,5.07729,7.73239,7.73239,0,0,1-7.41086-7.7685v0a7.77536,7.77536,0,0,1,7.77536-7.77536h37.71724a3.84992,3.84992,0,0,1,3.84992,3.84992h0A8.26049,8.26049,0,0,1,522.21516,522.68706Z" transform="translate(-214.84928 -124.57498)" fill="#3f3d56"/><path d="M761.11783,424.50363a4.39372,4.39372,0,0,0-2.67285.90137l-30.70117,23.47705-34.36621,4.48242c-5.917.772-10.01465,7.2085-10.52832,13.06055l40.45312-5.61768a27.16006,27.16006,0,0,0,15.19434-6.521l25.50195-22.05567a4.39754,4.39754,0,0,0-2.88086-7.72705Z" transform="translate(-214.84928 -124.57498)" fill="#3f3d56"/><path d="M746.11783,409.50363a4.39372,4.39372,0,0,0-2.67285.90137l-30.70117,23.47705-34.36621,4.48242c-5.917.772-10.01465,7.2085-10.52832,13.06055l40.45312-5.61768a27.16006,27.16006,0,0,0,15.19434-6.521l25.50195-22.05567a4.39754,4.39754,0,0,0-2.88086-7.72705Z" transform="translate(-214.84928 -124.57498)" fill="#3f3d56"/><path d="M764.84961,469.9248a45.69581,45.69581,0,0,1-36.71289-18.61718l4.03125-2.957a40.50175,40.50175,0,1,0,63.04394-50.72852l3.74805-3.31055a45.50091,45.50091,0,0,1-34.11035,75.61328Z" transform="translate(-214.84928 -124.57498)" fill="#3f3d56"/><rect x="231" y="625.85004" width="354" height="25" fill="#3f3d56"/><path d="M713.09656,456.6261h0a10.18779,10.18779,0,0,0,1.3916-18.23454L693.34928,425.925l-15,8,24.31162,20.95829A10.18779,10.18779,0,0,0,713.09656,456.6261Z" transform="translate(-214.84928 -124.57498)" fill="#ffb9b9"/><path d="M547.34928,544.925l14,8,86.44745-63.63076a27.85052,27.85052,0,0,0,11.83683-18.91318v0a27.94167,27.94167,0,0,0-10.08083-25.7766c-19.09112-15.50607-42.68561-29.57057-67.70346-43.17943l-37,18c15.24829,31.26617,32.175,57.04474,57,57Z" transform="translate(-214.84928 -124.57498)" fill="#9ccc34"/><path d="M541.24647,565.295c11.61559,11.76791,26.91121,20.18759,43.99575,26.97972a6.69787,6.69787,0,0,0,7.51557-1.82588h0a6.69441,6.69441,0,0,0-.24922-9.072l-11.07453-11.369-6.69114-23.83116c-14.3684,7.10225-23.78973,5.51252-25.6472-9.36705L540.039,549.16025A12.46738,12.46738,0,0,0,541.24647,565.295Z" transform="translate(-214.84928 -124.57498)" fill="#2f2e41"/><path d="M502.34928,670.925l21,1,48-247-82.5-26.5c-8.23685,30.79541,3.99267,81.20257,25.5,140.5Z" transform="translate(-214.84928 -124.57498)" fill="#9ccc34"/><circle cx="449" cy="105.85004" r="33" fill="#ffb9b9"/><polygon points="388.5 146.35 409.5 161.35 441.5 129.35 425.5 109.35 388.5 146.35" fill="#ffb9b9"/><path d="M485.34928,400.925c25.89825,21.10455,54.17919,34.97693,89,29,10.52213-16.82209,18.29108-52.25879,31.5-67.5,28.84538-33.28345,43.15165-62.95014,34-90-8.89618-5.816-8.5047-5.8064-15-25C573.97244,256.83765,524.71817,314.27,485.34928,400.925Z" transform="translate(-214.84928 -124.57498)" fill="#e6e6e6"/><path d="M502.01324,691.5052c14.9478,7.06888,32.20363,9.73025,50.58148,10.24912a6.69788,6.69788,0,0,0,6.43309-4.29338h0a6.69441,6.69441,0,0,0-3.34636-8.43594l-14.30271-6.87979L526.9181,662.05578c-11.05991,11.60048-20.45486,13.33933-27.30422,0l-4.2701,14.70812A12.46735,12.46735,0,0,0,502.01324,691.5052Z" transform="translate(-214.84928 -124.57498)" fill="#2f2e41"/><path d="M676.34928,440.925l19-14-42-74-12.14969-65.60829A18.81832,18.81832,0,0,0,622.69587,271.925h0a18.81832,18.81832,0,0,0-18.21094,23.56075L623.34928,367.925Z" transform="translate(-214.84928 -124.57498)" fill="#e6e6e6"/><rect x="355" y="467.85004" width="11" height="60" fill="#3f3d56"/><path d="M689.96913,220.85418a12.15211,12.15211,0,0,0,10.72753,4.28654c3.97236-.61923,7.50788-4.00777,7.76214-8.02.21954-3.46474-1.817-6.64247-3.954-9.3784a76.02955,76.02955,0,0,0-16.60985-15.67969c-3.00151-2.07795-6.31336-3.99085-9.95711-4.21488-1.80292-.11085-3.60978.19994-5.41441.12238-3.31827-.14258-6.42792-1.57847-9.66489-2.32218a23.77775,23.77775,0,0,0-19.309,4.09142,28.651,28.651,0,0,0-4.91809,4.79389,36.93227,36.93227,0,0,0-7.76576,16.88814c-1.73992,9.82683.43206,20.60434-4.29013,29.39613,5.54093-.51744,9.98318-4.74231,15.24715-6.54817a18.22945,18.22945,0,0,1,12.02739.10722,5.79481,5.79481,0,0,0,3.24482.60684,4.99254,4.99254,0,0,0,2.32073-1.6968l10.06553-10.95218c2.04848-2.22892,4.37544-4.60362,7.387-4.91222a11.66222,11.66222,0,0,1,5.22417,1.03624,78.79971,78.79971,0,0,1,11.67145,5.54606" transform="translate(-214.84928 -124.57498)" fill="#2f2e41"/><polygon points="456 324.85 453 326.85 473 346.85 485 335.85 465 319.85 456 324.85" fill="#3f3d56"/><rect width="247.65997" height="256.25" fill="#e6e6e6"/><rect x="13.21997" y="13.67999" width="221.22003" height="228.89001" fill="#fff"/><polygon points="56.26 246.57 64.139 246.57 64.089 243.398 63.954 236.362 62.705 164.015 62.688 163.677 62.047 126.711 60.478 36.85 60.124 36.85 58.453 127.369 57.795 163.694 57.778 164.032 56.26 246.57" fill="#e6e6e6"/><rect x="283.01613" y="348.73676" width="6.29051" height="23.76413" transform="translate(257.09777 -185.16627) rotate(62.23413)" fill="#e6e6e6"/><rect x="119" y="6.85004" width="10" height="242" fill="#e6e6e6"/><rect y="122.85004" width="247.65997" height="10" fill="#e6e6e6"/></svg>